<svg width="196" height="110" viewBox="0 0 196 110" fill="none" xmlns="http://www.w3.org/2000/svg">
<g opacity="0.4">
<path d="M97.5625 60.9112H91.9305V45.8544H97.5625V60.9112ZM92.4805 60.3612H97.0125V46.4044H92.4805V60.3612ZM105.399 60.9112H99.8802V45.8544H111.41C113.062 45.7206 114.707 46.1844 116.046 47.1612C116.622 47.6884 117.069 48.3417 117.351 49.07C117.633 49.7983 117.743 50.582 117.673 51.3599C117.755 52.7041 117.327 54.0298 116.475 55.0724C115.466 56.2296 113.787 56.8258 111.486 56.8467C110.907 56.8621 106.563 56.8467 105.402 56.8467L105.399 60.9112ZM100.427 60.3612H104.849V56.2912H105.125C105.181 56.2912 110.821 56.3088 111.473 56.2912C113.617 56.2725 115.158 55.7412 116.059 54.7039C116.818 53.7606 117.195 52.5668 117.115 51.3588C117.183 50.6618 117.089 49.9586 116.841 49.3037C116.593 48.6488 116.197 48.0599 115.685 47.5825C114.444 46.6916 112.925 46.2734 111.403 46.4033H100.43L100.427 60.3612ZM110.242 53.4642H104.811V49.3656H110.278C110.666 49.312 111.061 49.3573 111.426 49.4971C111.792 49.6369 112.116 49.8667 112.368 50.1653C112.598 50.5469 112.706 50.9892 112.679 51.4336C112.699 51.8462 112.61 52.2569 112.42 52.6238C112.159 52.9383 111.822 53.1803 111.441 53.3268C111.059 53.4732 110.646 53.519 110.242 53.4598V53.4642ZM105.361 52.9142H110.242C111.144 52.9142 111.703 52.7261 111.95 52.3389C112.087 52.0575 112.149 51.7457 112.13 51.4336C112.154 51.1059 112.083 50.7781 111.925 50.4898L111.919 50.4799C111.657 50.0949 111.136 49.9156 110.278 49.9156H105.361V52.9142ZM127.71 61.1334C122.771 61.1334 119.823 59.9069 118.7 57.3846C118.516 56.8974 118.392 56.39 118.328 55.8732L118.28 55.5564H124.156L124.195 55.7874C124.24 56.022 124.339 56.2427 124.485 56.432C124.717 56.7125 125.491 57.1833 128.061 57.1833C131.15 57.1833 131.15 56.641 131.15 56.3495C131.15 55.8578 130.792 55.6895 128.273 55.4211L127.795 55.376C126.847 55.2869 125.648 55.1736 125.1 55.1263C120.48 54.7083 118.417 53.2728 118.417 50.4733C118.417 47.533 121.927 45.6333 127.36 45.6333C131.792 45.6333 134.648 46.8015 135.846 49.1082C136.13 49.6448 136.321 50.2258 136.41 50.8264L136.449 51.1355H130.566L130.542 50.8869C130.519 50.6926 130.435 50.5104 130.304 50.3655C130.084 50.0707 129.389 49.5834 127.231 49.5834C124.581 49.5834 124.215 49.9222 124.215 50.2874C124.215 50.7747 125.053 50.9474 127.735 51.2345C128.854 51.3258 130.653 51.5106 131.269 51.5854C135.142 52.0056 136.87 53.4059 136.87 56.1273C136.871 58.4098 135.281 61.1334 127.71 61.1334ZM118.922 56.1064C118.977 56.4691 119.072 56.8247 119.205 57.1668C120.228 59.4647 123.011 60.5834 127.71 60.5834C131.639 60.5834 136.324 59.8134 136.324 56.1273C136.324 53.715 134.795 52.5204 131.21 52.1321C130.594 52.0573 128.807 51.8736 127.69 51.7812C124.83 51.471 123.668 51.306 123.668 50.2874C123.668 49.2336 124.921 49.0334 127.233 49.0334C129.06 49.0334 130.24 49.3634 130.741 50.0289C130.877 50.1929 130.98 50.3819 131.044 50.5855H135.812C135.716 50.1601 135.564 49.7492 135.361 49.3634C134.261 47.2525 131.573 46.1833 127.363 46.1833C122.264 46.1833 118.97 47.8674 118.97 50.4733C118.97 52.9593 120.819 54.1869 125.15 54.5785C125.7 54.6258 126.898 54.7391 127.849 54.8293L128.331 54.8744C130.67 55.1208 131.702 55.2748 131.702 56.3495C131.702 57.5067 130.368 57.7333 128.063 57.7333C125.931 57.7333 124.585 57.4132 124.065 56.7829C123.904 56.5819 123.783 56.3524 123.708 56.1064H118.922ZM147.32 61.1147C141.578 61.1147 138.41 58.7926 138.41 54.5752V45.8544H143.967V54.5752C143.967 56.0217 145.262 56.8511 147.518 56.8511C149.674 56.8511 151.013 55.9854 151.013 54.5939V45.8544H156.513V55.0372C156.518 58.8993 153.164 61.1147 147.317 61.1147H147.32ZM138.96 46.4044V54.5752C138.96 59.787 144.194 60.5647 147.32 60.5647C150.552 60.5647 155.971 59.8464 155.971 55.0372V46.4044H151.571V54.5939C151.571 56.2989 149.983 57.4011 147.527 57.4011C144.959 57.4011 143.426 56.3451 143.426 54.5752V46.4044H138.96ZM179.819 60.9112H174.575V54.1132L171.6 60.9112H167.025L164.082 54.1264V60.9112H158.818V45.8544H165.742L169.339 54.1561L173.109 45.8544H179.826L179.819 60.9112ZM175.125 60.3612H179.269V46.4044H173.459L169.321 55.5113L165.376 46.4044H159.364V60.3612H163.527V51.4798L167.377 60.3645H171.227L175.118 51.493L175.125 60.3612ZM20.9596 46.1294H15.9502V60.6362H29.7926V56.7741H20.9596V46.1294ZM39.9038 45.7994C33.5095 45.7994 30.1468 48.8299 30.1468 53.2794C30.1468 58.3064 33.6767 60.8562 39.9038 60.8562C46.759 60.8562 49.6421 57.8994 49.6421 53.2794C49.6421 48.5879 46.3894 45.7972 39.9038 45.7972V45.7994ZM39.8851 49.5691C40.3204 49.5671 40.7554 49.5924 41.1875 49.645L35.5874 55.2451C35.3224 54.6457 35.1931 53.9951 35.209 53.3399C35.209 51.064 36.3552 49.5669 39.8851 49.5669V49.5691ZM39.9038 57.1459C39.4844 57.1477 39.0653 57.1242 38.6487 57.0755L44.2587 51.4655C44.5138 52.055 44.6359 52.6935 44.6162 53.3355C44.6162 55.5498 43.5602 57.1437 39.9038 57.1437V57.1459ZM59.5674 55.1659H64.7231C64.6472 55.5237 64.4891 55.8589 64.2611 56.1449C63.1923 57.0157 61.8281 57.4394 60.454 57.3274C59.7624 57.4014 59.0629 57.3258 58.403 57.1059C57.7431 56.8859 57.1382 56.5267 56.6293 56.0525C56.1081 55.2879 55.8604 54.3696 55.9264 53.4466C55.8421 52.4794 56.1113 51.5145 56.6843 50.7307C57.4048 49.9167 58.6247 49.5658 60.4177 49.5658C61.5585 49.4713 62.6979 49.7643 63.6517 50.3974C63.9523 50.6362 64.177 50.9572 64.2985 51.3214H69.0802C69.0454 50.7213 68.9011 50.1327 68.6545 49.5845C67.5094 47.2558 64.8474 45.8698 60.3209 45.8698C56.384 45.8698 53.7418 47.071 52.2821 48.8827C51.318 50.191 50.8232 51.7861 50.8774 53.4103C50.815 55.0712 51.2971 56.7071 52.2502 58.0688C53.6923 59.9388 56.2608 60.8584 59.3474 60.8584C61.3995 61.0015 63.4375 60.4268 65.1125 59.2326L65.2423 60.6362H69.2144V52.043H59.5674V55.1659ZM80.4883 45.7961C74.0951 45.7961 70.7313 48.8266 70.7313 53.2761C70.7313 58.3031 74.2601 60.8529 80.4883 60.8529C87.3446 60.8529 90.2277 57.8961 90.2277 53.2761C90.2277 48.5879 86.975 45.7972 80.4883 45.7972V45.7961ZM80.4707 49.5658C80.8945 49.5645 81.3181 49.5888 81.739 49.6384L76.1609 55.2198C75.9042 54.6271 75.7792 53.9857 75.7946 53.3399C75.7902 51.064 76.9408 49.5669 80.4707 49.5669V49.5658ZM80.4883 57.1426C80.0578 57.1444 79.6276 57.1194 79.2002 57.0678L84.8289 51.438C85.0936 52.0353 85.2204 52.6846 85.1996 53.3377C85.2018 55.5498 84.1502 57.1437 80.4883 57.1437V57.1426Z" fill="#0D0E10"/>
</g>
</svg>
