<svg width="196" height="110" viewBox="0 0 196 110" fill="none" xmlns="http://www.w3.org/2000/svg">
<g opacity="0.4">
<path d="M11.5811 33.0518V72.05H186.017V33.0518H11.5811ZM183.817 69.85H94.7168V35.2518H183.817V69.85Z" fill="#0D0E10"/>
<path d="M20.8525 59.0844V46.1187H25.3273V55.6315H33.2209V59.0844H20.8525Z" fill="white"/>
<path d="M50.8636 52.5109C50.8636 56.6392 48.2874 59.2825 42.1593 59.2825C36.5933 59.2825 33.4385 57.0033 33.4385 52.5109C33.4385 48.53 36.4459 45.8218 42.1593 45.8218C47.9618 45.8218 50.8636 48.3155 50.8636 52.5109ZM46.3712 52.5604C46.3712 50.6904 45.5946 49.1911 42.1428 49.1911C38.988 49.1911 37.9628 50.5287 37.9628 52.5604C37.9628 54.6251 38.9033 55.9627 42.1571 55.9627C45.4318 55.9627 46.3712 54.5426 46.3712 52.5604Z" fill="white"/>
<path d="M64.7058 59.0844L64.5903 57.8282C63.0934 58.8966 61.2714 59.4107 59.4368 59.2824C56.6791 59.2824 54.3823 58.4563 53.0942 56.7887C52.2447 55.5712 51.8156 54.1098 51.8721 52.6263C51.8239 51.1739 52.2677 49.7479 53.1316 48.5794C54.4351 46.9613 56.7979 45.8877 60.3157 45.8877C64.3626 45.8877 66.7408 47.1263 67.7638 49.2075C67.9835 49.6976 68.1124 50.2235 68.1444 50.7596H63.8632C63.7554 50.4338 63.5547 50.1467 63.2857 49.9335C62.433 49.3681 61.4146 49.1066 60.3949 49.191C59.7969 49.1185 59.1902 49.1738 58.6151 49.3531C58.0399 49.5325 57.5094 49.8319 57.0586 50.2316C56.5467 50.9323 56.3064 51.7949 56.3821 52.6593C56.3228 53.484 56.5437 54.3046 57.0091 54.988C57.4641 55.4118 58.0048 55.7329 58.5946 55.9295C59.1845 56.1261 59.8097 56.1937 60.4279 56.1276C61.656 56.2275 62.875 55.8487 63.8302 55.0705C64.0355 54.814 64.1768 54.5124 64.2427 54.1905H59.6359V51.4042H68.2566V59.0844H64.7058Z" fill="white"/>
<path d="M86.9368 52.5109C86.9368 56.6392 84.3595 59.2825 78.2325 59.2825C72.6665 59.2825 69.5117 57.0033 69.5117 52.5109C69.5117 48.53 72.5191 45.8218 78.2325 45.8218C84.0306 45.8218 86.9368 48.3155 86.9368 52.5109ZM82.4444 52.5604C82.4444 50.6904 81.6678 49.1911 78.216 49.1911C75.0612 49.1911 74.036 50.5287 74.036 52.5604C74.036 54.6251 74.9776 55.9627 78.2303 55.9627C81.5039 55.9627 82.4444 54.5426 82.4444 52.5604Z" fill="white"/>
<path d="M102.254 59.035V46.0693H105.444V59.035H102.254Z" fill="#0D0E10"/>
<path d="M121.825 53.6169C121.016 54.674 119.625 55.1569 117.663 55.169C117.25 55.169 111.766 55.1525 111.766 55.1525V59.0344H108.645V46.0687H117.665C118.388 45.9923 119.118 46.069 119.81 46.2937C120.501 46.5185 121.138 46.8864 121.677 47.3733C122.39 48.302 122.737 49.4598 122.652 50.6271C122.725 51.6889 122.433 52.7436 121.825 53.6169ZM119.265 49.3896C118.935 48.8946 118.223 48.6196 117.019 48.6196H111.75V52.5664H116.985C118.273 52.5664 118.952 52.3024 119.265 51.7898C119.451 51.4287 119.532 51.0221 119.496 50.6172C119.524 50.1951 119.444 49.7728 119.265 49.3896Z" fill="#0D0E10"/>
<path d="M131.852 59.2328C125.971 59.2328 124.172 57.0328 124.172 54.8559H127.508C127.508 55.9295 128.978 56.7391 132.001 56.7391C135.006 56.7391 135.799 56.21 135.799 55.3509C135.799 54.3928 135.205 54.0958 132.413 53.7823C131.863 53.7328 130.366 53.5513 129.804 53.4688C125.844 53.0222 124.319 51.8496 124.319 49.7519C124.319 47.5387 126.55 45.8711 131.389 45.8711C136.642 45.8711 138.657 47.9358 138.657 50.083H135.357C135.357 48.9929 134.118 48.3648 131.194 48.3648C128.188 48.3648 127.544 48.7773 127.544 49.5869C127.544 50.4295 128.204 50.6935 131.394 51.073C132.122 51.1731 133.74 51.3546 134.185 51.403C137.556 51.7495 139.075 52.9716 139.075 55.1353C139.069 57.7126 136.757 59.2328 131.852 59.2328Z" fill="#0D0E10"/>
<path d="M148.469 59.2165C144.159 59.2165 141.351 57.5148 141.351 53.9365V46.0693H144.504V53.9805C144.504 55.6162 145.843 56.7052 148.601 56.7052C151.094 56.7052 152.582 55.6822 152.582 53.9805V46.0693H155.703V54.2302C155.703 57.4829 153.093 59.2165 148.469 59.2165Z" fill="#0D0E10"/>
<path d="M172.797 59.035V50.3802L168.75 59.035H165.679L161.747 50.3802V59.035H158.777V46.0693H162.801L167.261 55.9462L171.819 46.0693H175.779V59.035H172.797Z" fill="#0D0E10"/>
</g>
</svg>
