<svg width="196" height="110" viewBox="0 0 196 110" fill="none" xmlns="http://www.w3.org/2000/svg">
<g opacity="0.4">
<path d="M35.3594 69.1076H63.5744V40.8926H35.3594V69.1076ZM58.1437 52.2853H52.1817V46.3233H58.1437V52.2853ZM40.789 46.3233H46.7543V57.7149H58.1437V63.6769H40.789V46.3233ZM81.9477 40.8926C79.1575 40.8926 76.4299 41.72 74.11 43.2701C71.79 44.8203 69.9818 47.0236 68.914 49.6014C67.8463 52.1792 67.5669 55.0157 68.1112 57.7523C68.6556 60.4889 69.9992 63.0026 71.9722 64.9756C73.9451 66.9486 76.4588 68.2922 79.1954 68.8365C81.932 69.3809 84.7686 69.1015 87.3464 68.0337C89.9242 66.966 92.1275 65.1578 93.6776 62.8378C95.2278 60.5178 96.0552 57.7903 96.0552 55.0001C96.0508 51.2599 94.5631 47.6741 91.9184 45.0294C89.2736 42.3847 85.6879 40.8969 81.9477 40.8926ZM81.9477 63.6769C80.2316 63.6769 78.554 63.168 77.1271 62.2146C75.7002 61.2612 74.5881 59.906 73.9314 58.3206C73.2746 56.7351 73.1028 54.9905 73.4376 53.3073C73.7724 51.6242 74.5988 50.0781 75.8122 48.8647C77.0257 47.6512 78.5718 46.8248 80.2549 46.49C81.938 46.1552 83.6827 46.327 85.2681 46.9838C86.8536 47.6405 88.2087 48.7526 89.1622 50.1795C90.1156 51.6064 90.6245 53.284 90.6245 55.0001C90.621 57.3002 89.7057 59.5052 88.0792 61.1317C86.4528 62.7581 84.2478 63.6734 81.9477 63.6769ZM146.539 40.8926C143.748 40.8924 141.021 41.7196 138.701 43.2696C136.38 44.8196 134.572 47.0228 133.504 49.6006C132.436 52.1784 132.157 55.015 132.701 57.7516C133.245 60.4883 134.589 63.0021 136.562 64.9752C138.534 66.9483 141.048 68.292 143.785 68.8364C146.521 69.3809 149.358 69.1015 151.936 68.0338C154.514 66.9661 156.717 65.1579 158.267 62.8379C159.818 60.5179 160.645 57.7903 160.645 55.0001C160.641 51.2601 159.153 47.6745 156.509 45.0298C153.864 42.3851 150.279 40.8972 146.539 40.8926ZM146.539 63.6769C144.822 63.6771 143.145 63.1684 141.718 62.2151C140.291 61.2618 139.178 59.9068 138.521 58.3213C137.865 56.7359 137.693 54.9912 138.027 53.308C138.362 51.6248 139.188 50.0786 140.402 48.865C141.615 47.6515 143.161 46.825 144.844 46.4901C146.527 46.1552 148.272 46.327 149.858 46.9837C151.443 47.6403 152.798 48.7525 153.752 50.1794C154.705 51.6063 155.214 53.2839 155.214 55.0001C155.211 57.3 154.296 59.5048 152.669 61.1313C151.043 62.7577 148.839 63.6731 146.539 63.6769ZM114.243 40.8926C111.452 40.8926 108.725 41.72 106.405 43.2701C104.085 44.8203 102.277 47.0236 101.209 49.6014C100.141 52.1792 99.8618 55.0157 100.406 57.7523C100.95 60.4889 102.294 63.0026 104.267 64.9756C106.24 66.9486 108.754 68.2922 111.49 68.8365C114.227 69.3809 117.063 69.1015 119.641 68.0337C122.219 66.966 124.422 65.1578 125.973 62.8378C127.523 60.5178 128.35 57.7903 128.35 55.0001C128.346 51.2599 126.858 47.6741 124.213 45.0294C121.569 42.3847 117.983 40.8969 114.243 40.8926ZM114.243 63.6769C112.644 63.6777 111.076 63.2367 109.712 62.4026C108.348 61.5684 107.24 60.3736 106.513 58.95C105.785 57.5264 105.464 55.9294 105.587 54.3352C105.709 52.741 106.27 51.2117 107.207 49.916C108.144 48.6204 109.42 47.6087 110.896 46.9929C112.371 46.377 113.988 46.1807 115.568 46.4258C117.148 46.6709 118.63 47.3479 119.849 48.3818C121.069 49.4158 121.979 50.7667 122.479 52.2853H114.243V57.7149H122.479C121.906 59.4477 120.802 60.9562 119.324 62.0263C117.846 63.0965 116.068 63.674 114.243 63.6769Z" fill="#0D0E10"/>
</g>
</svg>
