<svg width="60" height="60" viewBox="0 0 60 60" fill="none" xmlns="http://www.w3.org/2000/svg">
<path d="M37.5 18.75C37.5 18.2527 37.6975 17.7758 38.0492 17.4242C38.4008 17.0725 38.8777 16.875 39.375 16.875H54.375C54.8723 16.875 55.3492 17.0725 55.7008 17.4242C56.0525 17.7758 56.25 18.2527 56.25 18.75C56.25 19.2473 56.0525 19.7242 55.7008 20.0758C55.3492 20.4275 54.8723 20.625 54.375 20.625H39.375C38.8777 20.625 38.4008 20.4275 38.0492 20.0758C37.6975 19.7242 37.5 19.2473 37.5 18.75ZM58.125 35.625C58.125 36.1223 57.9275 36.5992 57.5758 36.9508C57.2242 37.3025 56.7473 37.5 56.25 37.5H39.6094C40.0288 39.1086 40.9692 40.5329 42.2837 41.5505C43.5982 42.5682 45.2127 43.1218 46.875 43.125C47.8602 43.1298 48.8365 42.9373 49.7462 42.559C50.6559 42.1806 51.4806 41.624 52.1719 40.9219C52.5234 40.5712 52.9996 40.3743 53.4961 40.3743C53.9926 40.3743 54.4688 40.5712 54.8203 40.9219C54.9968 41.0943 55.137 41.3003 55.2327 41.5277C55.3284 41.7551 55.3778 41.9994 55.3778 42.2461C55.3778 42.4928 55.3284 42.7371 55.2327 42.9645C55.137 43.1919 54.9968 43.3979 54.8203 43.5703C53.7823 44.6218 52.5449 45.4557 51.1806 46.0232C49.8163 46.5906 48.3526 46.8802 46.875 46.875C44.65 46.875 42.4749 46.2152 40.6248 44.979C38.7748 43.7429 37.3328 41.9859 36.4814 39.9302C35.6299 37.8745 35.4071 35.6125 35.8412 33.4302C36.2752 31.2479 37.3467 29.2434 38.92 27.67C40.4934 26.0967 42.4979 25.0253 44.6802 24.5912C46.8625 24.1571 49.1245 24.3799 51.1802 25.2314C53.2359 26.0828 54.9929 27.5248 56.229 29.3748C57.4652 31.2249 58.125 33.4 58.125 35.625ZM54.1406 33.75C53.7276 32.1367 52.7893 30.7068 51.4738 29.6857C50.1583 28.6645 48.5403 28.1103 46.875 28.1103C45.2097 28.1103 43.5917 28.6645 42.2762 29.6857C40.9607 30.7068 40.0224 32.1367 39.6094 33.75H54.1406ZM32.8125 37.0312C32.8125 39.642 31.7754 42.1458 29.9293 43.9918C28.0833 45.8379 25.5795 46.875 22.9688 46.875H7.5C7.00272 46.875 6.52581 46.6775 6.17417 46.3258C5.82254 45.9742 5.625 45.4973 5.625 45V15C5.625 14.5027 5.82254 14.0258 6.17417 13.6742C6.52581 13.3225 7.00272 13.125 7.5 13.125H20.1562C21.8736 13.1274 23.5536 13.6263 24.9939 14.5615C26.4343 15.4967 27.5735 16.8284 28.2744 18.3962C28.9754 19.964 29.2081 21.701 28.9445 23.398C28.681 25.095 27.9324 26.6796 26.7891 27.9609C28.574 28.7126 30.0976 29.9741 31.169 31.5875C32.2404 33.2009 32.8121 35.0945 32.8125 37.0312ZM9.375 27.1875H20.1562C21.5238 27.1875 22.8353 26.6443 23.8023 25.6773C24.7693 24.7103 25.3125 23.3988 25.3125 22.0312C25.3125 20.6637 24.7693 19.3522 23.8023 18.3852C22.8353 17.4182 21.5238 16.875 20.1562 16.875H9.375V27.1875ZM29.0625 37.0312C29.0563 35.417 28.4123 33.8706 27.2709 32.7291C26.1294 31.5877 24.583 30.9437 22.9688 30.9375H9.375V43.125H22.9688C24.583 43.1188 26.1294 42.4748 27.2709 41.3334C28.4123 40.1919 29.0563 38.6455 29.0625 37.0312Z" fill="white"/>
</svg>
