<svg width="22" height="32" viewBox="0 0 22 32" fill="none" xmlns="http://www.w3.org/2000/svg">
<g clip-path="url(#clip0_629_5070)">
<path d="M5.39892 32.0006C8.37913 32.0006 10.7978 29.6113 10.7978 26.6673V21.334H5.39892C2.41872 21.334 0 23.7233 0 26.6673C0 29.6113 2.41872 32.0006 5.39892 32.0006Z" fill="#0ACF83"/>
<path d="M0 15.9993C0 13.0553 2.41872 10.666 5.39892 10.666H10.7978V21.3327H5.39892C2.41872 21.3327 0 18.9433 0 15.9993Z" fill="#A259FF"/>
<path d="M0.00390625 5.33333C0.00390625 2.38933 2.42262 0 5.40283 0H10.8017V10.6667H5.40283C2.42262 10.6667 0.00390625 8.27733 0.00390625 5.33333Z" fill="#F24E1E"/>
<path d="M10.7969 0H16.1958C19.176 0 21.5947 2.38933 21.5947 5.33333C21.5947 8.27733 19.176 10.6667 16.1958 10.6667H10.7969V0Z" fill="#FF7262"/>
<path d="M21.5947 15.9993C21.5947 18.9433 19.176 21.3327 16.1958 21.3327C13.2156 21.3327 10.7969 18.9433 10.7969 15.9993C10.7969 13.0553 13.2156 10.666 16.1958 10.666C19.176 10.666 21.5947 13.0553 21.5947 15.9993Z" fill="#1ABCFE"/>
</g>
<defs>
<clipPath id="clip0_629_5070">
<rect width="21.6" height="32" fill="white"/>
</clipPath>
</defs>
</svg>
