<svg width="87" height="24" viewBox="0 0 87 24" fill="none" xmlns="http://www.w3.org/2000/svg">
<path d="M23.5996 0.386719H27.2796V23.1067H23.5996V0.386719Z" fill="#17313B"/>
<path d="M40.08 15.9066C40.08 19.4266 37.2 19.7466 36.24 19.7466C34 19.7466 33.68 17.6666 33.68 16.5466V7.74658H30V16.3866C30 18.4666 30.64 20.3866 31.92 21.5066C33.04 22.6266 34.48 23.1066 36.24 23.1066C37.52 23.1066 39.12 22.7866 40.08 21.8266V23.1066H43.76V7.74658H40.08V15.9066Z" fill="#17313B"/>
<path d="M50.9601 2.14697H47.2801V7.74697H44.5601V11.267H47.2801V23.107H50.9601V11.267H53.6801V7.74697H50.9601V2.14697Z" fill="#17313B"/>
<path d="M65.1998 18.4668C64.3998 19.1068 63.2798 19.5868 62.1598 19.5868C59.5998 19.5868 57.8398 17.6668 57.8398 15.1068C57.8398 12.5468 59.5998 10.7868 62.1598 10.7868C63.2798 10.7868 64.3998 11.1068 65.1998 11.9068L65.6798 12.3868L68.2398 9.98675L67.5998 9.50675C66.1598 8.22675 64.2398 7.42676 62.1598 7.42676C57.6798 7.42676 54.3198 10.7868 54.3198 15.2668C54.3198 19.7468 57.6798 23.1068 62.1598 23.1068C64.2398 23.1068 66.1598 22.3068 67.5998 21.0268L68.2398 20.5468L65.6798 17.9868L65.1998 18.4668Z" fill="#17313B"/>
<path d="M81.2 9.02672C80.08 7.90672 78.96 7.42672 77.2 7.42672C75.92 7.42672 74.64 7.74672 73.68 8.70672V0.386719H70V23.1067H73.68V14.6267C73.68 11.1067 76.08 10.7867 77.04 10.7867C79.28 10.7867 79.12 12.8667 79.12 13.9867V22.9467H82.8V14.1467C82.8 12.0667 82.32 10.1467 81.2 9.02672Z" fill="#17313B"/>
<path d="M61.9999 17.8266C63.4138 17.8266 64.5599 16.6804 64.5599 15.2665C64.5599 13.8527 63.4138 12.7065 61.9999 12.7065C60.5861 12.7065 59.4399 13.8527 59.4399 15.2665C59.4399 16.6804 60.5861 17.8266 61.9999 17.8266Z" fill="#EF4335"/>
<path d="M18.4798 17.5065C17.1998 18.7865 15.2798 19.5865 13.1998 19.5865C9.19981 19.5865 6.31981 16.3865 6.31981 12.0665C6.31981 7.7465 9.1998 4.5465 13.3598 4.5465C15.2798 4.5465 17.1998 5.3465 18.6398 6.7865L19.1198 7.2665L21.5198 4.8665L21.0398 4.3865C18.9598 2.3065 16.2398 1.1865 13.3598 1.1865C7.2798 1.0265 2.7998 5.8265 2.7998 12.0665C2.7998 18.3065 7.2798 23.1065 13.1998 23.1065C16.0798 23.1065 18.9598 21.9865 20.8798 19.9065L21.3598 19.4265L18.9598 17.0265L18.4798 17.5065Z" fill="#17313B"/>
</svg>
