<svg width="48" height="48" viewBox="0 0 48 48" fill="none" xmlns="http://www.w3.org/2000/svg">
<rect width="48" height="48" rx="12" fill="url(#paint0_linear_933_1074)"/>
<path d="M31.875 13.5H30.125V12.625C30.125 12.3929 30.0328 12.1704 29.8687 12.0063C29.7046 11.8422 29.4821 11.75 29.25 11.75C29.0179 11.75 28.7954 11.8422 28.6313 12.0063C28.4672 12.1704 28.375 12.3929 28.375 12.625V13.5H24.875V12.625C24.875 12.3929 24.7828 12.1704 24.6187 12.0063C24.4546 11.8422 24.2321 11.75 24 11.75C23.7679 11.75 23.5454 11.8422 23.3813 12.0063C23.2172 12.1704 23.125 12.3929 23.125 12.625V13.5H19.625V12.625C19.625 12.3929 19.5328 12.1704 19.3687 12.0063C19.2046 11.8422 18.9821 11.75 18.75 11.75C18.5179 11.75 18.2954 11.8422 18.1313 12.0063C17.9672 12.1704 17.875 12.3929 17.875 12.625V13.5H16.125C15.6609 13.5 15.2158 13.6844 14.8876 14.0126C14.5594 14.3408 14.375 14.7859 14.375 15.25V31.875C14.375 32.8033 14.7437 33.6935 15.4001 34.3499C16.0565 35.0063 16.9467 35.375 17.875 35.375H30.125C31.0533 35.375 31.9435 35.0063 32.5999 34.3499C33.2563 33.6935 33.625 32.8033 33.625 31.875V15.25C33.625 14.7859 33.4406 14.3408 33.1124 14.0126C32.7842 13.6844 32.3391 13.5 31.875 13.5ZM27.5 28.375H20.5C20.2679 28.375 20.0454 28.2828 19.8813 28.1187C19.7172 27.9546 19.625 27.7321 19.625 27.5C19.625 27.2679 19.7172 27.0454 19.8813 26.8813C20.0454 26.7172 20.2679 26.625 20.5 26.625H27.5C27.7321 26.625 27.9546 26.7172 28.1187 26.8813C28.2828 27.0454 28.375 27.2679 28.375 27.5C28.375 27.7321 28.2828 27.9546 28.1187 28.1187C27.9546 28.2828 27.7321 28.375 27.5 28.375ZM27.5 24.875H20.5C20.2679 24.875 20.0454 24.7828 19.8813 24.6187C19.7172 24.4546 19.625 24.2321 19.625 24C19.625 23.7679 19.7172 23.5454 19.8813 23.3813C20.0454 23.2172 20.2679 23.125 20.5 23.125H27.5C27.7321 23.125 27.9546 23.2172 28.1187 23.3813C28.2828 23.5454 28.375 23.7679 28.375 24C28.375 24.2321 28.2828 24.4546 28.1187 24.6187C27.9546 24.7828 27.7321 24.875 27.5 24.875Z" fill="white"/>
<defs>
<linearGradient id="paint0_linear_933_1074" x1="-2.64002" y1="5.52002" x2="36.9337" y2="51.7227" gradientUnits="userSpaceOnUse">
<stop offset="0.197917" stop-color="#B16CEA"/>
<stop offset="0.557292" stop-color="#FF5E69"/>
<stop offset="0.828125" stop-color="#FF8A56"/>
<stop offset="1" stop-color="#FFA84B"/>
</linearGradient>
</defs>
</svg>
