<svg xmlns="http://www.w3.org/2000/svg" fill="none" viewBox="0 0 177 37"><path fill="#fff" fill-rule="evenodd" d="M20 10v4h-6v10c0 2 1 3 3 3l3-1v4l-5 1c-4 0-7-2-7-7V14H5v-4h3V5h6v5h6Zm17 9c0-4-2-5-5-5-2 0-4 1-5 5h10Zm-2 7 2-2h5c-1 4-4 7-10 7s-10-4-10-11c0-6 4-10 10-10s10 3 10 9v2H27c1 4 3 6 5 6l3-1Zm30-9c0-4 3-7 6-7 5 0 7 3 7 8v13h-5V18c0-2-1-4-4-4s-4 2-4 5v12h-5V18c0-2-2-4-4-4-3 0-5 2-5 5v12h-5V10h5v7c1-4 3-7 7-7s6 2 7 5v2Zm6-7Zm73 10c0-4-1-6-5-6-3 0-5 2-5 6s2 7 5 7c4 0 5-3 5-7Zm-15 0c0-6 4-10 10-10 7 0 11 4 11 10 0 7-4 11-11 11-6 0-10-4-10-11Zm23 4h5c0 2 2 4 5 4 2 0 4-1 4-3s-3-3-5-3c-4-1-8-1-8-6 0-4 3-6 9-6 5 0 8 2 8 6h-5c0-2-1-3-3-3-3 0-4 1-4 3 0 1 2 2 5 2 4 1 8 2 8 6 0 5-3 7-9 7s-10-3-10-7Zm-34-14c-4 0-6 3-7 7v-7h-5v21h5V20c0-4 2-6 5-6 2 0 4 2 4 4v13h5V18c0-5-3-8-7-8Zm0 0Zm-26 4c3 0 4 1 5 5H87c1-4 2-5 5-5Zm5 10a5 5 0 0 1-5 3c-3 0-4-2-5-6h15v-2c-1-6-4-9-10-9s-10 4-10 10c0 7 4 11 10 11 5 0 9-3 10-7h-5Z" clip-rule="evenodd"/></svg>