<svg width="197" height="110" viewBox="0 0 197 110" fill="none" xmlns="http://www.w3.org/2000/svg">
<g opacity="0.4">
<path d="M69.3254 65.2455C68.5009 65.2901 67.6855 65.0558 67.0106 64.5801C66.7286 64.3711 66.5017 64.0965 66.3496 63.7802C66.1974 63.4638 66.1246 63.1152 66.1374 62.7644V49.9154C66.1306 49.861 66.1364 49.8058 66.1542 49.754C66.172 49.7021 66.2014 49.6551 66.2402 49.6163C66.279 49.5775 66.326 49.5481 66.3779 49.5303C66.4297 49.5125 66.4849 49.5067 66.5393 49.5135H68.868C69.1313 49.5135 69.2561 49.6521 69.2561 49.9154V61.7664C69.2561 62.2931 69.4917 62.5565 69.9768 62.5565C70.1825 62.565 70.3882 62.5416 70.5867 62.4872C70.8639 62.4872 71.0164 62.5703 71.0302 62.8198L71.2382 64.5524C71.2481 64.6029 71.2472 64.655 71.2354 64.7051C71.2235 64.7552 71.2011 64.8022 71.1696 64.8429C71.1381 64.8837 71.0982 64.9172 71.0526 64.9412C71.0071 64.9652 70.9569 64.9791 70.9055 64.9821C70.3954 65.1506 69.8625 65.2394 69.3254 65.2455Z" fill="#0D0E10"/>
<path d="M82.4237 63.7622C81.2536 64.729 79.7832 65.2578 78.2654 65.2578C76.7476 65.2578 75.2773 64.729 74.1072 63.7622C73.0788 62.724 72.5018 61.3217 72.5018 59.8604C72.5018 58.3991 73.0788 56.9968 74.1072 55.9586C75.2796 54.9968 76.7491 54.4712 78.2654 54.4712C79.7818 54.4712 81.2513 54.9968 82.4237 55.9586C83.4284 57.0064 83.9893 58.4018 83.9893 59.8535C83.9893 61.3051 83.4284 62.7006 82.4237 63.7484V63.7622ZM76.2972 61.9326C76.8402 62.4245 77.5466 62.6969 78.2793 62.6969C79.0119 62.6969 79.7184 62.4245 80.2614 61.9326C80.7528 61.3675 81.0235 60.6439 81.0235 59.8951C81.0235 59.1462 80.7528 58.4226 80.2614 57.8575C79.7184 57.3657 79.0119 57.0932 78.2793 57.0932C77.5466 57.0932 76.8402 57.3657 76.2972 57.8575C75.8058 58.4226 75.5351 59.1462 75.5351 59.8951C75.5351 60.6439 75.8058 61.3675 76.2972 61.9326Z" fill="#0D0E10"/>
<path d="M96.8104 54.8218C97.0737 54.8218 97.1985 54.9604 97.1985 55.2237V65.1619C97.2227 65.8327 97.0972 66.5004 96.831 67.1166C96.5649 67.7327 96.1648 68.2819 95.6599 68.7241C94.5392 69.6797 93.0979 70.175 91.6264 70.1102C90.2974 70.1569 88.9861 69.794 87.8702 69.0706C87.3937 68.7577 86.9866 68.3501 86.6742 67.8732C86.3618 67.3964 86.1509 66.8603 86.0544 66.2985C86.0544 66.0213 86.0544 65.8965 86.4287 65.8965H88.7573C88.8561 65.8999 88.9519 65.9318 89.0331 65.9883C89.1142 66.0449 89.1773 66.1237 89.2147 66.2153C89.3657 66.6363 89.6668 66.9867 90.0602 67.1994C90.5396 67.4468 91.0732 67.5707 91.6126 67.5598C91.938 67.5776 92.2638 67.5304 92.5708 67.421C92.8778 67.3115 93.1599 67.1419 93.4006 66.9222C93.6205 66.6923 93.7916 66.4203 93.9036 66.1226C94.0156 65.8248 94.0661 65.5074 94.0521 65.1896V64.3164C93.2183 64.9296 92.2036 65.2467 91.169 65.2173C90.445 65.2437 89.723 65.1234 89.0466 64.8638C88.3701 64.6042 87.7531 64.2105 87.2326 63.7065C86.2333 62.6727 85.6747 61.2911 85.6747 59.8532C85.6747 58.4154 86.2333 57.0338 87.2326 55.9999C87.7556 55.5003 88.3734 55.1105 89.0495 54.8534C89.7255 54.5963 90.4462 54.4772 91.169 54.503C92.2336 54.4748 93.2755 54.8124 94.1214 55.4594V55.2376C94.115 55.1845 94.1206 55.1306 94.1376 55.0799C94.1547 55.0292 94.1828 54.9829 94.2199 54.9444C94.2571 54.9059 94.3024 54.8762 94.3525 54.8574C94.4025 54.8386 94.4562 54.8311 94.5095 54.8356L96.8104 54.8218ZM91.4324 62.7501C91.7895 62.7612 92.1447 62.6937 92.4728 62.5523C92.8009 62.411 93.094 62.1994 93.3313 61.9323C93.7921 61.3372 94.0422 60.6059 94.0422 59.8532C94.0422 59.1005 93.7921 58.3692 93.3313 57.7741C93.0948 57.5107 92.8035 57.3022 92.4779 57.1633C92.1522 57.0244 91.8001 56.9585 91.4462 56.9702C91.085 56.9588 90.7257 57.0261 90.393 57.1673C90.0604 57.3085 89.7624 57.5202 89.5196 57.788C89.0091 58.3572 88.7406 59.103 88.7711 59.8671C88.7461 60.6236 89.0086 61.3615 89.5057 61.9323C89.7491 62.1993 90.0472 62.4106 90.3797 62.5517C90.7122 62.6929 91.0713 62.7605 91.4324 62.7501Z" fill="#0D0E10"/>
<path d="M109.161 63.7621C107.988 64.7238 106.519 65.2495 105.002 65.2495C103.486 65.2495 102.017 64.7238 100.844 63.7621C99.8386 62.712 99.2772 61.3142 99.2772 59.8603C99.2772 58.4063 99.8386 57.0085 100.844 55.9584C102.018 54.9991 103.487 54.4751 105.002 54.4751C106.518 54.4751 107.987 54.9991 109.161 55.9584C110.165 57.0062 110.726 58.4017 110.726 59.8533C110.726 61.305 110.165 62.7004 109.161 63.7482V63.7621ZM103.02 61.9324C103.286 62.1852 103.599 62.3828 103.942 62.5136C104.285 62.6445 104.65 62.7061 105.016 62.6948C105.381 62.7042 105.743 62.6417 106.083 62.5109C106.423 62.3801 106.734 62.1835 106.998 61.9324C107.482 61.3636 107.747 60.6414 107.747 59.8949C107.747 59.1484 107.482 58.4262 106.998 57.8574C106.734 57.6063 106.423 57.4097 106.083 57.2789C105.743 57.1481 105.381 57.0856 105.016 57.095C104.65 57.0837 104.285 57.1453 103.942 57.2762C103.599 57.407 103.286 57.6046 103.02 57.8574C102.537 58.4262 102.271 59.1484 102.271 59.8949C102.271 60.6414 102.537 61.3636 103.02 61.9324Z" fill="#0D0E10"/>
<path d="M115.731 52.4657C115.365 52.7864 114.894 52.9632 114.407 52.9632C113.92 52.9632 113.45 52.7864 113.084 52.4657C112.917 52.3089 112.785 52.1199 112.695 51.9101C112.604 51.7004 112.557 51.4744 112.557 51.246C112.557 51.0175 112.604 50.7915 112.695 50.5818C112.785 50.372 112.917 50.183 113.084 50.0262C113.454 49.7135 113.923 49.542 114.407 49.542C114.892 49.542 115.361 49.7135 115.731 50.0262C115.897 50.183 116.029 50.372 116.12 50.5818C116.21 50.7915 116.257 51.0175 116.257 51.246C116.257 51.4744 116.21 51.7004 116.12 51.9101C116.029 52.1199 115.897 52.3089 115.731 52.4657ZM116.022 65.2453C115.198 65.2857 114.384 65.0517 113.707 64.58C113.43 64.3679 113.207 64.0924 113.057 63.7765C112.908 63.4606 112.836 63.1135 112.848 62.7642V55.224C112.841 55.1696 112.847 55.1144 112.865 55.0625C112.883 55.0107 112.912 54.9636 112.951 54.9249C112.989 54.8861 113.037 54.8567 113.088 54.8389C113.14 54.8211 113.195 54.8153 113.25 54.822H115.578C115.842 54.822 115.967 54.9606 115.967 55.224V61.7663C115.967 62.293 116.202 62.5563 116.673 62.5563C116.884 62.5639 117.094 62.5405 117.297 62.487C117.574 62.487 117.727 62.5702 117.741 62.8197L117.949 64.5523C117.959 64.6028 117.958 64.6549 117.946 64.705C117.934 64.7551 117.912 64.8021 117.88 64.8428C117.849 64.8835 117.809 64.917 117.763 64.941C117.718 64.965 117.667 64.979 117.616 64.982C117.101 65.1514 116.564 65.2403 116.022 65.2453Z" fill="#0D0E10"/>
<path d="M126.515 54.489C127.242 54.4603 127.968 54.5779 128.649 54.8351C129.33 55.0923 129.952 55.4836 130.479 55.986C131.459 57.0379 132.004 58.4222 132.004 59.86C132.004 61.2978 131.459 62.6822 130.479 63.7341C129.955 64.2409 129.333 64.6361 128.652 64.8958C127.97 65.1555 127.243 65.2743 126.515 65.245C125.477 65.268 124.46 64.9517 123.618 64.344V69.3477C123.618 69.6111 123.479 69.7359 123.216 69.7359H120.887C120.834 69.7458 120.779 69.7426 120.728 69.7266C120.676 69.7106 120.629 69.6823 120.591 69.6441C120.553 69.6059 120.524 69.5589 120.508 69.5073C120.492 69.4556 120.489 69.4009 120.499 69.3477V57.9819C120.516 57.8707 120.506 57.7573 120.47 57.6506C120.435 57.544 120.375 57.447 120.296 57.3676C120.216 57.2881 120.119 57.2284 120.013 57.193C119.906 57.1577 119.793 57.1478 119.681 57.1641H119.224C118.919 57.1641 118.767 57.0532 118.767 56.8315V55.1959C118.759 55.0947 118.787 54.9941 118.845 54.9108C118.903 54.8276 118.988 54.7668 119.085 54.7385C119.565 54.5642 120.072 54.4796 120.582 54.489C121.091 54.444 121.602 54.5518 122.049 54.7988C122.495 55.0457 122.859 55.4205 123.091 55.8751C123.538 55.4234 124.072 55.0676 124.66 54.8293C125.249 54.5909 125.88 54.4752 126.515 54.489ZM124.353 61.9322C124.6 62.1905 124.897 62.3961 125.225 62.5365C125.554 62.6769 125.908 62.7493 126.265 62.7493C126.623 62.7493 126.977 62.6769 127.305 62.5365C127.634 62.3961 127.931 62.1905 128.178 61.9322C128.699 61.3516 128.972 60.5907 128.94 59.8115C128.977 59.0316 128.703 58.2691 128.178 57.6908C127.931 57.4325 127.634 57.227 127.305 57.0866C126.977 56.9461 126.623 56.8737 126.265 56.8737C125.908 56.8737 125.554 56.9461 125.225 57.0866C124.897 57.227 124.6 57.4325 124.353 57.6908C123.848 58.2793 123.586 59.0372 123.618 59.8115C123.59 60.5853 123.852 61.3417 124.353 61.9322Z" fill="#0D0E10"/>
<path d="M138.546 65.2448C137.302 65.296 136.068 64.9983 134.984 64.3855C134.549 64.1235 134.178 63.7669 133.9 63.3422C133.622 62.9175 133.442 62.4355 133.376 61.9321C133.376 61.6549 133.473 61.5163 133.778 61.5163H135.815C135.912 61.5201 136.006 61.5505 136.087 61.6044C136.168 61.6582 136.232 61.7332 136.273 61.8212C136.564 62.5697 137.326 62.944 138.546 62.944C138.971 62.9634 139.395 62.8777 139.78 62.6945C139.912 62.6345 140.026 62.5397 140.109 62.4201C140.192 62.3005 140.241 62.1606 140.251 62.0153C140.251 61.6549 140.029 61.4054 139.585 61.2391C139.059 61.064 138.515 60.9478 137.964 60.8926C137.31 60.8186 136.662 60.7028 136.023 60.546C135.402 60.4054 134.837 60.082 134.402 59.6174C134.145 59.3016 133.956 58.9364 133.847 58.5445C133.737 58.1526 133.71 57.7424 133.766 57.3394C133.822 56.9364 133.96 56.5492 134.172 56.2019C134.384 55.8546 134.665 55.5546 134.998 55.3205C135.997 54.6841 137.169 54.3741 138.352 54.4334C139.497 54.3947 140.631 54.678 141.623 55.2512C142.023 55.4778 142.367 55.7906 142.631 56.1671C142.895 56.5436 143.071 56.9741 143.148 57.4274C143.148 57.7046 143.023 57.8432 142.773 57.8432H140.722C140.636 57.8483 140.55 57.8272 140.476 57.7827C140.401 57.7382 140.342 57.6723 140.306 57.5937C140.169 57.2654 139.911 57.0024 139.585 56.8591C139.218 56.6669 138.808 56.5715 138.393 56.5819C137.987 56.5598 137.582 56.6408 137.215 56.8175C137.086 56.8673 136.975 56.9547 136.896 57.0683C136.817 57.182 136.774 57.3167 136.772 57.4551C136.781 57.6446 136.85 57.8263 136.97 57.9735C137.089 58.1207 137.253 58.2256 137.437 58.2729C137.969 58.4735 138.523 58.613 139.086 58.6887C139.735 58.774 140.378 58.8943 141.013 59.0491C141.634 59.1897 142.199 59.5131 142.635 59.9778C142.868 60.2337 143.048 60.5333 143.164 60.8592C143.281 61.1852 143.332 61.531 143.314 61.8767C143.326 62.3558 143.213 62.8299 142.988 63.2526C142.762 63.6753 142.43 64.0322 142.025 64.2885C140.989 64.9533 139.776 65.2869 138.546 65.2448Z" fill="#0D0E10"/>
<path d="M157.964 64.552C157.972 64.6013 157.97 64.6516 157.958 64.7C157.946 64.7484 157.925 64.7939 157.895 64.8339C157.865 64.874 157.828 64.9077 157.785 64.933C157.742 64.9584 157.695 64.975 157.645 64.9817C157.139 65.147 156.611 65.2357 156.079 65.2451C155.552 65.2996 155.02 65.2173 154.535 65.006C154.049 64.7948 153.626 64.4618 153.307 64.0392C152.328 64.881 151.062 65.3129 149.772 65.2451C149.174 65.2727 148.576 65.1747 148.017 64.9575C147.459 64.7403 146.952 64.4086 146.529 63.9838C146.109 63.5386 145.783 63.0133 145.571 62.4393C145.359 61.8653 145.266 61.2545 145.295 60.6433V55.2237C145.295 54.9604 145.42 54.8218 145.683 54.8218H148.012C148.275 54.8218 148.4 54.9604 148.4 55.2237V60.2275C148.375 60.8509 148.588 61.4605 148.996 61.9324C149.2 62.1485 149.448 62.3185 149.723 62.4309C149.997 62.5432 150.293 62.5954 150.59 62.5838C150.894 62.5971 151.197 62.5501 151.483 62.4454C151.768 62.3407 152.03 62.1805 152.253 61.9739C152.465 61.7563 152.629 61.4976 152.736 61.2139C152.844 60.9302 152.892 60.6275 152.877 60.3245V55.2237C152.877 54.9604 153.002 54.8218 153.265 54.8218H155.622C155.885 54.8218 156.01 54.9604 156.01 55.2237V61.7522C156.01 62.2927 156.245 62.5561 156.703 62.5561C156.917 62.5644 157.132 62.5411 157.34 62.4868C157.393 62.4721 157.448 62.4695 157.501 62.4791C157.555 62.4887 157.606 62.5103 157.65 62.5423C157.694 62.5743 157.73 62.6159 157.755 62.6639C157.781 62.7119 157.796 62.7651 157.798 62.8195L157.964 64.552Z" fill="#0D0E10"/>
<path d="M179.989 64.5519C180.002 64.6015 180.003 64.6533 179.993 64.7034C179.983 64.7536 179.962 64.8009 179.931 64.842C179.901 64.883 179.862 64.9169 179.817 64.941C179.771 64.9651 179.722 64.979 179.67 64.9816C179.155 65.1491 178.618 65.2379 178.076 65.2449C177.252 65.2875 176.438 65.0533 175.762 64.5796C175.47 64.3767 175.232 64.1048 175.07 63.7881C174.908 63.4714 174.827 63.1195 174.833 62.7638V59.5066C174.862 58.885 174.654 58.2756 174.251 57.8017C174.056 57.5851 173.816 57.4143 173.548 57.3016C173.279 57.189 172.989 57.1373 172.699 57.1502C172.436 57.1403 172.175 57.1901 171.935 57.2957C171.695 57.4014 171.482 57.5602 171.312 57.7601C170.947 58.2246 170.76 58.805 170.786 59.3957V64.5103C170.786 64.7737 170.661 64.9123 170.398 64.9123H168.055C168.001 64.919 167.946 64.9133 167.894 64.8954C167.842 64.8776 167.795 64.8482 167.756 64.8095C167.717 64.7707 167.688 64.7236 167.67 64.6718C167.652 64.6199 167.646 64.5647 167.653 64.5103V59.5066C167.683 58.8918 167.492 58.2867 167.113 57.8017C166.944 57.598 166.732 57.434 166.492 57.3214C166.253 57.2088 165.991 57.1503 165.727 57.1502C165.444 57.1388 165.162 57.1873 164.899 57.2924C164.636 57.3974 164.399 57.5568 164.202 57.7601C163.805 58.2098 163.601 58.7971 163.634 59.3957V64.5103C163.64 64.5647 163.635 64.6199 163.617 64.6718C163.599 64.7236 163.569 64.7707 163.531 64.8095C163.492 64.8482 163.445 64.8776 163.393 64.8954C163.341 64.9133 163.286 64.919 163.232 64.9123H160.972C160.709 64.9123 160.584 64.7737 160.584 64.5103V57.9819C160.6 57.8707 160.591 57.7573 160.555 57.6506C160.52 57.5439 160.46 57.447 160.381 57.3676C160.301 57.2881 160.204 57.2283 160.098 57.193C159.991 57.1577 159.878 57.1478 159.766 57.1641H159.309C159.004 57.1641 158.852 57.0532 158.852 56.8314V55.1959C158.844 55.0947 158.872 54.994 158.93 54.9108C158.988 54.8276 159.073 54.7667 159.17 54.7385C159.65 54.5642 160.157 54.4796 160.667 54.489C161.157 54.4473 161.648 54.5448 162.085 54.7705C162.522 54.9961 162.885 55.3406 163.135 55.7642C163.602 55.3209 164.156 54.9789 164.762 54.7595C165.368 54.5401 166.012 54.448 166.655 54.489C167.28 54.4585 167.903 54.5756 168.473 54.8309C169.044 55.0862 169.547 55.4724 169.94 55.9582C170.399 55.4596 170.963 55.0692 171.591 54.8151C172.219 54.561 172.895 54.4496 173.572 54.489C174.177 54.4607 174.781 54.5581 175.346 54.7752C175.912 54.9923 176.426 55.3244 176.857 55.7503C177.278 56.1945 177.604 56.7197 177.816 57.2939C178.029 57.8681 178.122 58.4794 178.09 59.0907V61.7659C178.09 62.2926 178.326 62.5559 178.77 62.5559C178.984 62.566 179.199 62.5426 179.407 62.4866C179.694 62.4866 179.846 62.5975 179.865 62.8193L179.989 64.5519Z" fill="#0D0E10"/>
<path d="M17.4578 53.02C18.4804 48.9098 20.8488 45.2599 24.1857 42.6515C27.5227 40.043 31.6364 38.626 35.8719 38.626C40.1073 38.626 44.2211 40.043 47.558 42.6515C50.895 45.2599 53.2633 48.9098 54.2859 53.02H52.6226C49.8167 52.9787 47.0684 53.8172 44.7635 55.4179C44.6305 55.5142 44.4916 55.6022 44.3477 55.6813H44.1537C44.0097 55.6022 43.8709 55.5142 43.7378 55.4179C41.4125 53.8543 38.674 53.0192 35.8719 53.0192C33.0697 53.0192 30.3312 53.8543 28.0059 55.4179C27.8728 55.5142 27.734 55.6022 27.59 55.6813H27.396C27.2521 55.6022 27.1132 55.5142 26.9802 55.4179C24.6753 53.8172 21.927 52.9787 19.1211 53.02H17.4578ZM49.6287 61.7107C50.4825 61.0458 51.5408 60.6979 52.6226 60.7266H54.8542V56.2773H52.6226C50.7171 56.2542 48.8551 56.8474 47.3139 57.9683C46.4467 58.6077 45.3975 58.9526 44.32 58.9526C43.2425 58.9526 42.1933 58.6077 41.3261 57.9683C39.7458 56.8683 37.8666 56.2786 35.9412 56.2786C34.0157 56.2786 32.1365 56.8683 30.5562 57.9683C29.689 58.6077 28.6398 58.9526 27.5623 58.9526C26.4848 58.9526 25.4357 58.6077 24.5684 57.9683C23.0082 56.833 21.1196 56.2391 19.1904 56.2773H16.8895V60.7266H19.1211C20.203 60.6979 21.2612 61.0458 22.115 61.7107C23.6924 62.8115 25.5696 63.4017 27.493 63.4017C29.4165 63.4017 31.2936 62.8115 32.871 61.7107C33.7259 61.0478 34.7834 60.7002 35.8649 60.7266C36.9471 60.6956 38.0061 61.0437 38.8589 61.7107C40.4391 62.8108 42.3183 63.4004 44.2438 63.4004C46.1692 63.4004 48.0484 62.8108 49.6287 61.7107ZM49.6287 69.6668C50.4825 69.0018 51.5408 68.654 52.6226 68.6827H54.8542V64.2334H52.6226C50.7171 64.2103 48.8551 64.8034 47.3139 65.9244C46.4467 66.5638 45.3975 66.9087 44.32 66.9087C43.2425 66.9087 42.1933 66.5638 41.3261 65.9244C39.7458 64.8244 37.8666 64.2347 35.9412 64.2347C34.0157 64.2347 32.1365 64.8244 30.5562 65.9244C29.689 66.5638 28.6398 66.9087 27.5623 66.9087C26.4848 66.9087 25.4357 66.5638 24.5684 65.9244C23.0082 64.7891 21.1196 64.1952 19.1904 64.2334H16.8895V68.6827H19.1211C20.203 68.654 21.2612 69.0018 22.115 69.6668C23.6924 70.7676 25.5696 71.3578 27.493 71.3578C29.4165 71.3578 31.2936 70.7676 32.871 69.6668C33.7259 69.0039 34.7834 68.6563 35.8649 68.6827C36.9471 68.6517 38.0061 68.9998 38.8589 69.6668C40.4391 70.7668 42.3183 71.3565 44.2438 71.3565C46.1692 71.3565 48.0484 70.7668 49.6287 69.6668Z" fill="#0D0E10"/>
</g>
</svg>
