<svg width="48" height="48" viewBox="0 0 48 48" fill="none" xmlns="http://www.w3.org/2000/svg">
<rect width="48" height="48" rx="12" fill="url(#paint0_linear_933_1055)"/>
<path d="M29.2502 35.3741C29.2502 35.6062 29.158 35.8287 28.9939 35.9928C28.8298 36.1569 28.6073 36.2491 28.3752 36.2491H19.6252C19.3931 36.2491 19.1706 36.1569 19.0065 35.9928C18.8424 35.8287 18.7502 35.6062 18.7502 35.3741C18.7502 35.142 18.8424 34.9195 19.0065 34.7554C19.1706 34.5913 19.3931 34.4991 19.6252 34.4991H28.3752C28.6073 34.4991 28.8298 34.5913 28.9939 34.7554C29.158 34.9195 29.2502 35.142 29.2502 35.3741ZM33.6252 21.3741C33.6281 22.832 33.2986 24.2714 32.6618 25.5829C32.025 26.8944 31.0977 28.0435 29.9502 28.9429C29.7335 29.1065 29.5575 29.3179 29.4361 29.5608C29.3147 29.8037 29.251 30.0713 29.2502 30.3429V30.9991C29.2502 31.4632 29.0658 31.9084 28.7376 32.2365C28.4094 32.5647 27.9643 32.7491 27.5002 32.7491H20.5002C20.0361 32.7491 19.5909 32.5647 19.2628 32.2365C18.9346 31.9084 18.7502 31.4632 18.7502 30.9991V30.3429C18.7494 30.0751 18.688 29.8111 18.5706 29.5705C18.4531 29.3299 18.2827 29.1191 18.0721 28.9538C16.927 28.0607 15.9994 26.9195 15.359 25.616C14.7187 24.3126 14.3823 22.881 14.3752 21.4288C14.3424 16.2116 18.5643 11.8694 23.7705 11.7491C25.0541 11.717 26.3311 11.9423 27.5261 12.4117C28.7212 12.8811 29.8101 13.5852 30.7287 14.4823C31.6472 15.3794 32.3768 16.4515 32.8742 17.6351C33.3717 18.8188 33.627 20.0901 33.6252 21.3741ZM28.1236 21.6257C27.9577 21.4614 27.7337 21.3692 27.5002 21.3692C27.2667 21.3692 27.0426 21.4614 26.8767 21.6257L24.0002 24.5132L21.1236 21.6257C20.9536 21.4861 20.7378 21.4148 20.5181 21.4256C20.2984 21.4364 20.0906 21.5285 19.9351 21.684C19.7796 21.8396 19.6875 22.0474 19.6767 22.267C19.6659 22.4867 19.7372 22.7025 19.8768 22.8725L23.1252 26.11V30.1241C23.1252 30.3562 23.2174 30.5787 23.3815 30.7428C23.5456 30.9069 23.7681 30.9991 24.0002 30.9991C24.2323 30.9991 24.4548 30.9069 24.6189 30.7428C24.783 30.5787 24.8752 30.3562 24.8752 30.1241V26.11L28.1236 22.8725C28.2879 22.7067 28.3801 22.4826 28.3801 22.2491C28.3801 22.0156 28.2879 21.7916 28.1236 21.6257Z" fill="white"/>
<defs>
<linearGradient id="paint0_linear_933_1055" x1="-2.64002" y1="5.52002" x2="36.9337" y2="51.7227" gradientUnits="userSpaceOnUse">
<stop offset="0.197917" stop-color="#B16CEA"/>
<stop offset="0.557292" stop-color="#FF5E69"/>
<stop offset="0.828125" stop-color="#FF8A56"/>
<stop offset="1" stop-color="#FFA84B"/>
</linearGradient>
</defs>
</svg>
