<svg width="48" height="48" viewBox="0 0 48 48" fill="none" xmlns="http://www.w3.org/2000/svg">
<rect width="48" height="48" rx="12" fill="url(#paint0_linear_933_1064)"/>
<path d="M25.75 33.625H22.25C22.0179 33.625 21.7954 33.7172 21.6313 33.8813C21.4672 34.0454 21.375 34.2679 21.375 34.5C21.375 34.7321 21.4672 34.9546 21.6313 35.1187C21.7954 35.2828 22.0179 35.375 22.25 35.375H25.75C25.9821 35.375 26.2046 35.2828 26.3687 35.1187C26.5328 34.9546 26.625 34.7321 26.625 34.5C26.625 34.2679 26.5328 34.0454 26.3687 33.8813C26.2046 33.7172 25.9821 33.625 25.75 33.625Z" fill="white"/>
<path d="M34.0186 25.7398L30.7154 21.7695C30.6079 20.4618 30.3132 19.1763 29.8404 17.9523C28.5717 14.6491 26.3295 12.4835 25.0936 11.4882C24.7853 11.2363 24.3999 11.0977 24.0017 11.0957C23.6036 11.0937 23.2168 11.2284 22.9061 11.4773C21.6592 12.4726 19.3842 14.6382 18.1045 17.9413C17.6137 19.1907 17.315 20.5072 17.2186 21.846L13.9811 25.7398C13.8093 25.9449 13.6866 26.1864 13.6222 26.4461C13.5577 26.7057 13.5533 26.9766 13.6092 27.2382L14.9654 33.3195C15.0292 33.6095 15.1663 33.8785 15.3635 34.1005C15.5607 34.3226 15.8115 34.4905 16.092 34.5882C16.2823 34.6527 16.4817 34.686 16.6826 34.6866C17.0764 34.6845 17.4578 34.5496 17.7654 34.3038L20.8061 31.8757H27.1936L30.2342 34.3038C30.5418 34.5496 30.9233 34.6845 31.317 34.6866C31.5179 34.686 31.7174 34.6527 31.9076 34.5882C32.1881 34.4905 32.4389 34.3226 32.6361 34.1005C32.8333 33.8785 32.9704 33.6095 33.0342 33.3195L34.3904 27.2382C34.4463 26.9766 34.4419 26.7057 34.3775 26.4461C34.313 26.1864 34.1903 25.9449 34.0186 25.7398ZM16.6717 32.9366L15.3264 26.8554L17.2842 24.5038C17.5394 26.5528 18.2358 28.6455 19.3733 30.782L16.6717 32.9366ZM23.9998 21.8132C23.7402 21.8132 23.4865 21.7362 23.2706 21.592C23.0548 21.4478 22.8866 21.2428 22.7872 21.003C22.6879 20.7632 22.6619 20.4993 22.7125 20.2447C22.7632 19.9901 22.8882 19.7562 23.0717 19.5726C23.2553 19.3891 23.4892 19.2641 23.7438 19.2134C23.9984 19.1628 24.2623 19.1888 24.5021 19.2881C24.7419 19.3875 24.9469 19.5557 25.0911 19.7715C25.2353 19.9874 25.3123 20.2411 25.3123 20.5007C25.3123 20.8488 25.174 21.1826 24.9279 21.4288C24.6817 21.6749 24.3479 21.8132 23.9998 21.8132ZM31.3279 32.9366L28.6154 30.771C29.7529 28.6163 30.4311 26.5054 30.6717 24.4492L32.6733 26.8554L31.3279 32.9366Z" fill="white"/>
<defs>
<linearGradient id="paint0_linear_933_1064" x1="-2.64002" y1="5.52002" x2="36.9337" y2="51.7227" gradientUnits="userSpaceOnUse">
<stop offset="0.197917" stop-color="#B16CEA"/>
<stop offset="0.557292" stop-color="#FF5E69"/>
<stop offset="0.828125" stop-color="#FF8A56"/>
<stop offset="1" stop-color="#FFA84B"/>
</linearGradient>
</defs>
</svg>
