<svg width="60" height="60" viewBox="0 0 60 60" fill="none" xmlns="http://www.w3.org/2000/svg">
<path d="M49.6875 6.5625H10.3125C9.31794 6.5625 8.36411 6.95759 7.66085 7.66085C6.95759 8.36411 6.5625 9.31794 6.5625 10.3125V49.6875C6.5625 50.6821 6.95759 51.6359 7.66085 52.3391C8.36411 53.0424 9.31794 53.4375 10.3125 53.4375H49.6875C50.6821 53.4375 51.6359 53.0424 52.3391 52.3391C53.0424 51.6359 53.4375 50.6821 53.4375 49.6875V10.3125C53.4375 9.31794 53.0424 8.36411 52.3391 7.66085C51.6359 6.95759 50.6821 6.5625 49.6875 6.5625ZM22.5 41.25C22.5 41.7473 22.3025 42.2242 21.9508 42.5758C21.5992 42.9275 21.1223 43.125 20.625 43.125C20.1277 43.125 19.6508 42.9275 19.2992 42.5758C18.9475 42.2242 18.75 41.7473 18.75 41.25V26.25C18.75 25.7527 18.9475 25.2758 19.2992 24.9242C19.6508 24.5725 20.1277 24.375 20.625 24.375C21.1223 24.375 21.5992 24.5725 21.9508 24.9242C22.3025 25.2758 22.5 25.7527 22.5 26.25V41.25ZM20.625 21.5625C20.0687 21.5625 19.525 21.3976 19.0625 21.0885C18.5999 20.7795 18.2395 20.3402 18.0266 19.8263C17.8137 19.3124 17.758 18.7469 17.8665 18.2013C17.9751 17.6557 18.2429 17.1546 18.6363 16.7613C19.0296 16.3679 19.5307 16.1001 20.0763 15.9915C20.6219 15.883 21.1874 15.9387 21.7013 16.1516C22.2152 16.3645 22.6545 16.7249 22.9635 17.1875C23.2726 17.65 23.4375 18.1937 23.4375 18.75C23.4375 19.4959 23.1412 20.2113 22.6137 20.7387C22.0863 21.2662 21.3709 21.5625 20.625 21.5625ZM43.125 41.25C43.125 41.7473 42.9275 42.2242 42.5758 42.5758C42.2242 42.9275 41.7473 43.125 41.25 43.125C40.7527 43.125 40.2758 42.9275 39.9242 42.5758C39.5725 42.2242 39.375 41.7473 39.375 41.25V32.8125C39.375 31.5693 38.8811 30.377 38.0021 29.4979C37.123 28.6189 35.9307 28.125 34.6875 28.125C33.4443 28.125 32.252 28.6189 31.3729 29.4979C30.4939 30.377 30 31.5693 30 32.8125V41.25C30 41.7473 29.8025 42.2242 29.4508 42.5758C29.0992 42.9275 28.6223 43.125 28.125 43.125C27.6277 43.125 27.1508 42.9275 26.7992 42.5758C26.4475 42.2242 26.25 41.7473 26.25 41.25V26.25C26.2487 25.7886 26.4176 25.3428 26.7244 24.9982C27.0312 24.6535 27.4543 24.434 27.9128 24.3818C28.3712 24.3295 28.8329 24.4482 29.2093 24.7151C29.5858 24.9819 29.8506 25.3782 29.9531 25.8281C31.2218 24.9681 32.7009 24.4699 34.2314 24.387C35.7619 24.3042 37.286 24.6398 38.6402 25.3578C39.9943 26.0758 41.1273 27.1492 41.9175 28.4626C42.7076 29.776 43.1251 31.2798 43.125 32.8125V41.25Z" fill="white"/>
</svg>
