<svg width="60" height="60" viewBox="0 0 60 60" fill="none" xmlns="http://www.w3.org/2000/svg">
<path d="M21.8672 8.64808C21.7152 8.55513 21.5928 8.4208 21.5144 8.26081C21.436 8.10082 21.4048 7.9218 21.4245 7.74472C21.4442 7.56764 21.5139 7.39984 21.6255 7.26096C21.7371 7.12208 21.886 7.01789 22.0547 6.96058C25.4707 5.77884 29.1073 5.37393 32.6996 5.77532C36.2919 6.17672 39.7494 7.37432 42.8203 9.28089C42.9346 9.34908 43.033 9.44081 43.1091 9.54999C43.1851 9.65916 43.2371 9.78328 43.2615 9.91408C43.2858 10.0449 43.2821 10.1794 43.2505 10.3086C43.2189 10.4379 43.1601 10.5589 43.0781 10.6637C40.3531 14.1217 37.0264 17.0594 33.2578 19.3356C30.208 15.0523 26.3358 11.4192 21.8672 8.64808ZM29.9063 21.0934C26.4748 16.431 21.9735 12.6612 16.7813 10.1012C16.6279 10.0318 16.4597 10.0018 16.2918 10.0141C16.124 10.0264 15.9619 10.0805 15.8203 10.1715C11.6192 13.1973 8.47834 17.4699 6.84375 22.3825C6.80508 22.5071 6.79287 22.6385 6.80791 22.7682C6.82295 22.8979 6.86491 23.023 6.9311 23.1355C6.99729 23.2481 7.08626 23.3455 7.19229 23.4217C7.29833 23.4978 7.4191 23.551 7.54688 23.5778C9.99607 24.1063 12.4944 24.3734 15 24.3746C20.1486 24.3811 25.2363 23.2612 29.9063 21.0934ZM54.2344 27.3512C53.6349 21.9148 51.2244 16.8379 47.3906 12.9371C47.296 12.8449 47.1833 12.7733 47.0597 12.7266C46.9361 12.6799 46.8041 12.6592 46.6722 12.6658C46.5402 12.6724 46.411 12.7061 46.2927 12.7649C46.1743 12.8237 46.0694 12.9063 45.9844 13.0075C43.0206 16.7898 39.3907 19.9987 35.2734 22.4762C36.5577 24.7048 37.6251 27.0515 38.4609 29.484C41.8152 28.577 45.2752 28.1199 48.75 28.1246C50.238 28.1281 51.7247 28.2142 53.2031 28.3825C53.3422 28.3972 53.4828 28.3807 53.6146 28.3341C53.7464 28.2875 53.8662 28.212 53.965 28.1131C54.0639 28.0142 54.1394 27.8945 54.186 27.7627C54.2326 27.6308 54.2491 27.4902 54.2344 27.3512ZM39.4922 33.0934C40.1808 36.0517 40.5268 39.0794 40.5234 42.1168C40.5217 45.0184 40.1994 47.911 39.5625 50.7418C39.5207 50.9159 39.5297 51.0983 39.5883 51.2675C39.6469 51.4366 39.7527 51.5854 39.8932 51.6964C40.0337 51.8073 40.203 51.8757 40.3812 51.8934C40.5593 51.9112 40.7388 51.8775 40.8984 51.7965C44.4549 50.0177 47.5226 47.3966 49.8347 44.1614C52.1467 40.9262 53.633 37.1749 54.1641 33.234C54.1805 33.1108 54.1722 32.9855 54.1397 32.8654C54.1072 32.7454 54.0511 32.6331 53.9748 32.5349C53.8984 32.4367 53.8033 32.3548 53.695 32.2937C53.5866 32.2327 53.4673 32.1938 53.3438 32.1793C51.8214 31.9713 50.2865 31.8695 48.75 31.8746C45.6238 31.8708 42.5109 32.2806 39.4922 33.0934ZM34.875 30.6559C34.1323 28.4349 33.1582 26.2982 31.9688 24.2809C26.672 26.8175 20.8728 28.1311 15 28.1246C12.2506 28.1232 9.50893 27.8325 6.82031 27.2575C6.69008 27.2304 6.55559 27.2314 6.42577 27.2604C6.29595 27.2894 6.17378 27.3456 6.06737 27.4254C5.96097 27.5052 5.87276 27.6067 5.80861 27.7233C5.74446 27.8398 5.70584 27.9686 5.69531 28.1012C5.64844 28.7262 5.625 29.359 5.625 29.9996C5.62381 33.3369 6.30992 36.6387 7.64059 39.6992C8.97125 42.7597 10.9179 45.5134 13.3594 47.7887C13.46 47.8853 13.5814 47.9576 13.7142 48.0001C13.8471 48.0426 13.9879 48.0541 14.1259 48.0337C14.2639 48.0133 14.3954 47.9617 14.5104 47.8826C14.6253 47.8036 14.7206 47.6993 14.7891 47.5778C19.3621 39.8145 26.4481 33.8447 34.875 30.6559ZM17.7422 49.9684C17.6797 50.0759 17.6391 50.1947 17.623 50.318C17.6068 50.4413 17.6153 50.5666 17.648 50.6865C17.6808 50.8065 17.737 50.9188 17.8135 51.0168C17.8901 51.1148 17.9853 51.1966 18.0938 51.2575C21.7261 53.3087 25.8285 54.3828 30 54.3746C31.4226 54.3809 32.8427 54.2553 34.2422 53.9996C34.4042 53.9728 34.5556 53.9016 34.6797 53.7941C34.8037 53.6865 34.8957 53.5468 34.9453 53.3903C36.161 49.7562 36.7784 45.9488 36.7734 42.1168C36.7721 39.4758 36.4813 36.8429 35.9062 34.2653C28.229 37.2602 21.8155 42.8047 17.7422 49.9684Z" fill="white"/>
</svg>
