<svg width="38" height="36" viewBox="0 0 38 36" fill="none" xmlns="http://www.w3.org/2000/svg">
<path d="M11.5283 0.246991L14.7623 3.48099C13.1943 6.22499 11.8223 8.96899 10.6463 11.713C9.47027 14.359 8.78427 16.956 8.58827 19.504L15.9383 21.121V35.38H0.0622659V25.09C0.0622659 19.014 1.23827 14.114 3.59027 10.39C6.04027 6.56799 8.68627 3.18699 11.5283 0.246991ZM33.5783 0.246991L36.8123 3.48099C35.2443 6.22499 33.8723 8.96899 32.6963 11.713C31.5203 14.359 30.8343 16.956 30.6383 19.504L37.9883 21.121V35.38H22.1123V25.09C22.1123 19.014 23.2883 14.114 25.6403 10.39C28.0903 6.56799 30.7363 3.18699 33.5783 0.246991Z" fill="#030211"/>
</svg>
