<svg width="60" height="60" viewBox="0 0 60 60" fill="none" xmlns="http://www.w3.org/2000/svg">
<path d="M30 37.5C34.1421 37.5 37.5 34.1421 37.5 30C37.5 25.8579 34.1421 22.5 30 22.5C25.8579 22.5 22.5 25.8579 22.5 30C22.5 34.1421 25.8579 37.5 30 37.5Z" fill="white"/>
<path d="M40.3125 6.5625H19.6875C16.2065 6.5625 12.8681 7.94531 10.4067 10.4067C7.94531 12.8681 6.5625 16.2065 6.5625 19.6875V40.3125C6.5625 43.7935 7.94531 47.1319 10.4067 49.5933C12.8681 52.0547 16.2065 53.4375 19.6875 53.4375H40.3125C43.7935 53.4375 47.1319 52.0547 49.5933 49.5933C52.0547 47.1319 53.4375 43.7935 53.4375 40.3125V19.6875C53.4375 16.2065 52.0547 12.8681 49.5933 10.4067C47.1319 7.94531 43.7935 6.5625 40.3125 6.5625ZM30 41.25C27.775 41.25 25.5999 40.5902 23.7498 39.354C21.8998 38.1179 20.4578 36.3609 19.6064 34.3052C18.7549 32.2495 18.5321 29.9875 18.9662 27.8052C19.4003 25.6229 20.4717 23.6184 22.045 22.045C23.6184 20.4717 25.6229 19.4003 27.8052 18.9662C29.9875 18.5321 32.2495 18.7549 34.3052 19.6064C36.3609 20.4578 38.1179 21.8998 39.354 23.7498C40.5902 25.5999 41.25 27.775 41.25 30C41.25 32.9837 40.0647 35.8452 37.955 37.955C35.8452 40.0647 32.9837 41.25 30 41.25ZM42.1875 20.625C41.6312 20.625 41.0875 20.4601 40.625 20.151C40.1624 19.842 39.802 19.4027 39.5891 18.8888C39.3762 18.3749 39.3205 17.8094 39.429 17.2638C39.5376 16.7182 39.8054 16.2171 40.1988 15.8238C40.5921 15.4304 41.0932 15.1626 41.6388 15.054C42.1844 14.9455 42.7499 15.0012 43.2638 15.2141C43.7777 15.427 44.217 15.7874 44.526 16.25C44.835 16.7125 45 17.2562 45 17.8125C45 18.5584 44.7037 19.2738 44.1762 19.8012C43.6488 20.3287 42.9334 20.625 42.1875 20.625Z" fill="white"/>
</svg>
