<svg width="162" height="46" viewBox="0 0 162 46" fill="none" xmlns="http://www.w3.org/2000/svg">
<path d="M46.916 31.1H57.2127V28.1906H50.0558V14.6055H46.916V31.1Z" fill="white"/>
<path d="M63.4003 31.4449C64.6471 31.4449 65.7437 31.17 66.6902 30.6201C67.6444 30.0627 68.3871 29.2953 68.9181 28.3179C69.4568 27.3327 69.7261 26.1987 69.7261 24.9159C69.7261 23.6406 69.4606 22.5142 68.9296 21.5367C68.3986 20.5517 67.656 19.7804 66.7017 19.2229C65.7552 18.6654 64.6548 18.3867 63.4003 18.3867C62.169 18.3867 61.0801 18.6617 60.1336 19.2115C59.1871 19.7613 58.4444 20.5287 57.9057 21.5139C57.367 22.4913 57.0977 23.6253 57.0977 24.9159C57.0977 26.1911 57.3593 27.3213 57.8826 28.3063C58.4136 29.2838 59.1524 30.0513 60.0989 30.6087C61.0455 31.1662 62.146 31.4449 63.4003 31.4449ZM63.4003 28.5355C62.423 28.5355 61.6804 28.2109 61.1725 27.5619C60.6722 26.9051 60.4222 26.0231 60.4222 24.9159C60.4222 23.8391 60.6607 22.9685 61.1379 22.3041C61.6227 21.6322 62.3768 21.2961 63.4003 21.2961C64.3931 21.2961 65.1395 21.6246 65.6397 22.2813C66.1476 22.938 66.4016 23.8161 66.4016 24.9159C66.4016 25.9773 66.1516 26.8478 65.6513 27.5275C65.1588 28.1994 64.4084 28.5355 63.4003 28.5355Z" fill="white"/>
<path d="M75.936 31.4449C76.5209 31.4449 77.0596 31.3761 77.5521 31.2387C78.0523 31.1013 78.5064 30.9065 78.9142 30.6545V31.9031C78.9297 32.3613 78.8103 32.7431 78.5564 33.0485C78.3101 33.3616 77.9792 33.5946 77.5637 33.7473C77.1481 33.9077 76.7056 33.9879 76.2362 33.9879C75.7975 33.9879 75.3896 33.8924 75.0126 33.7015C74.6432 33.5106 74.3584 33.2319 74.1583 32.8653L71.2495 34.2627C71.7265 35.0645 72.4076 35.7098 73.2926 36.1985C74.1777 36.6949 75.1511 36.9431 76.2131 36.9431C77.1289 36.9431 77.9792 36.8209 78.7641 36.5765C79.5491 36.3398 80.211 35.9771 80.7496 35.4883C81.296 34.9996 81.6693 34.3773 81.8694 33.6213C81.9386 33.354 81.9847 33.0829 82.0079 32.808C82.0386 32.5407 82.054 32.2544 82.054 31.9489V18.7303H79.3067V19.4177C78.8834 19.0893 78.4024 18.8373 77.8638 18.6617C77.3328 18.4783 76.7441 18.3867 76.0976 18.3867C74.9049 18.3867 73.8659 18.6693 72.981 19.2343C72.096 19.7994 71.4072 20.5745 70.9147 21.5597C70.4298 22.5371 70.1875 23.6559 70.1875 24.9159C70.1875 26.1529 70.426 27.264 70.9032 28.2491C71.388 29.2341 72.0613 30.0131 72.9232 30.5859C73.7851 31.1585 74.7894 31.4449 75.936 31.4449ZM76.4439 28.6729C75.7668 28.6729 75.2127 28.5049 74.7817 28.1689C74.3508 27.8329 74.0314 27.3824 73.8237 26.8173C73.6159 26.2445 73.5119 25.6107 73.5119 24.9159C73.5119 24.2285 73.6197 23.6024 73.8352 23.0373C74.0507 22.4645 74.3815 22.0102 74.8279 21.6741C75.2819 21.3305 75.8591 21.1587 76.5594 21.1587C77.5444 21.1587 78.2485 21.5062 78.6718 22.2011C79.0951 22.8883 79.3067 23.7933 79.3067 24.9159C79.3067 26.0383 79.0912 26.9471 78.6603 27.642C78.237 28.3293 77.4983 28.6729 76.4439 28.6729Z" fill="white"/>
<path d="M89.5117 31.4449C90.7584 31.4449 91.855 31.17 92.8015 30.6201C93.7556 30.0627 94.4984 29.2953 95.029 28.3179C95.5677 27.3327 95.8371 26.1987 95.8371 24.9159C95.8371 23.6406 95.5723 22.5142 95.0408 21.5367C94.5102 20.5517 93.7674 19.7804 92.8131 19.2229C91.8665 18.6654 90.766 18.3867 89.5117 18.3867C88.2803 18.3867 87.1914 18.6617 86.2449 19.2115C85.2984 19.7613 84.5558 20.5287 84.017 21.5139C83.4784 22.4913 83.209 23.6253 83.209 24.9159C83.209 26.1911 83.4706 27.3213 83.994 28.3063C84.5249 29.2838 85.2637 30.0513 86.2103 30.6087C87.1569 31.1662 88.2573 31.4449 89.5117 31.4449ZM89.5117 28.5355C88.5343 28.5355 87.7917 28.2109 87.2838 27.5619C86.7836 26.9051 86.5335 26.0231 86.5335 24.9159C86.5335 23.8391 86.772 22.9685 87.2492 22.3041C87.734 21.6322 88.4881 21.2961 89.5117 21.2961C90.5044 21.2961 91.2509 21.6246 91.7511 22.2813C92.259 22.938 92.5129 23.8161 92.5129 24.9159C92.5129 25.9773 92.2628 26.8478 91.7626 27.5275C91.2701 28.1994 90.5198 28.5355 89.5117 28.5355Z" fill="white"/>
<path d="M97.2207 17.0108H100.361V14.2617H97.2207V17.0108ZM97.2207 31.0999H100.361V18.729H97.2207V31.0999Z" fill="white"/>
<path d="M102.414 36.5995H105.577V30.6545C105.985 30.9065 106.435 31.1013 106.927 31.2387C107.428 31.3762 107.97 31.4449 108.555 31.4449C109.702 31.4449 110.707 31.1585 111.568 30.5859C112.43 30.0131 113.099 29.2341 113.576 28.2491C114.061 27.264 114.304 26.1529 114.304 24.9159C114.304 23.6559 114.058 22.5371 113.565 21.5597C113.08 20.5745 112.395 19.7994 111.51 19.2343C110.625 18.6693 109.586 18.3867 108.394 18.3867C107.747 18.3867 107.155 18.4783 106.616 18.6617C106.085 18.8373 105.608 19.0893 105.185 19.4177V18.7303H102.414V36.5995ZM108.047 28.6729C107.001 28.6729 106.262 28.3293 105.831 27.642C105.4 26.9471 105.185 26.0383 105.185 24.9159C105.185 23.7933 105.396 22.8883 105.82 22.2011C106.251 21.5062 106.954 21.1587 107.932 21.1587C108.632 21.1587 109.206 21.3305 109.652 21.6741C110.106 22.0102 110.441 22.4645 110.656 23.0373C110.872 23.6024 110.98 24.2285 110.98 24.9159C110.98 25.6107 110.875 26.2445 110.668 26.8173C110.46 27.3824 110.141 27.8329 109.71 28.1689C109.279 28.5049 108.725 28.6729 108.047 28.6729Z" fill="white"/>
<path d="M119.99 31.4449C121.621 31.4449 122.899 31.0822 123.822 30.3567C124.745 29.6312 125.207 28.6347 125.207 27.3671C125.207 26.4049 124.907 25.6451 124.307 25.0877C123.714 24.5302 122.706 24.0681 121.283 23.7017C120.313 23.4572 119.589 23.2587 119.112 23.106C118.643 22.9533 118.331 22.8044 118.177 22.6593C118.031 22.5142 117.958 22.3347 117.958 22.1209C117.958 21.762 118.131 21.4871 118.477 21.2961C118.832 21.1053 119.297 21.0289 119.874 21.0671C121.098 21.1587 121.768 21.678 121.883 22.6249L125.092 22.0521C124.93 20.9297 124.376 20.04 123.429 19.3833C122.483 18.7189 121.275 18.3867 119.805 18.3867C118.297 18.3867 117.092 18.738 116.192 19.4405C115.292 20.1431 114.841 21.09 114.841 22.2813C114.841 23.2282 115.153 23.9765 115.776 24.5263C116.399 25.0686 117.473 25.5343 118.997 25.9239C119.898 26.1606 120.559 26.3514 120.982 26.4965C121.413 26.6416 121.691 26.7906 121.813 26.9433C121.936 27.0884 121.998 27.2831 121.998 27.5275C121.998 27.9169 121.844 28.2224 121.536 28.4439C121.229 28.6576 120.79 28.7645 120.22 28.7645C119.528 28.7645 118.954 28.6004 118.501 28.272C118.055 27.9436 117.765 27.4893 117.635 26.9089L114.426 27.39C114.633 28.6806 115.218 29.6809 116.181 30.3911C117.15 31.0936 118.42 31.4449 119.99 31.4449Z" fill="white"/>
<path d="M131 31.466C131.901 31.466 132.685 31.3171 133.356 31.0193C134.025 30.7215 134.586 30.3244 135.041 29.828V31.0995H137.811V18.7285H134.648V25.0057C134.648 25.7693 134.559 26.3878 134.382 26.8613C134.214 27.3271 133.994 27.6822 133.725 27.9265C133.455 28.1633 133.167 28.3236 132.859 28.4077C132.551 28.4916 132.263 28.5337 131.993 28.5337C131.324 28.5337 130.804 28.3847 130.435 28.0869C130.073 27.7891 129.811 27.4187 129.65 26.9758C129.488 26.5329 129.392 26.0938 129.361 25.6585C129.331 25.2156 129.315 24.8529 129.315 24.5703V18.7285H126.129V25.67C126.129 25.8761 126.144 26.2045 126.175 26.6551C126.206 27.1056 126.295 27.6058 126.441 28.1557C126.587 28.6978 126.829 29.2209 127.168 29.7249C127.515 30.2289 127.995 30.6451 128.611 30.9735C129.226 31.3018 130.023 31.466 131 31.466Z" fill="white"/>
<path d="M139.629 31.1004H142.792V23.6091C142.792 22.899 142.987 22.3224 143.38 21.8795C143.78 21.4289 144.307 21.2036 144.962 21.2036C145.647 21.2036 146.182 21.4328 146.566 21.891C146.958 22.3415 147.155 22.9753 147.155 23.7924V31.1004H150.295V23.6091C150.295 22.899 150.491 22.3224 150.884 21.8795C151.284 21.4289 151.811 21.2036 152.464 21.2036C153.15 21.2036 153.684 21.4328 154.069 21.891C154.462 22.3415 154.658 22.9753 154.658 23.7924V31.1004H157.797V22.9676C157.797 21.616 157.432 20.5241 156.701 19.6916C155.978 18.8517 154.904 18.4316 153.48 18.4316C152.68 18.4316 151.946 18.6035 151.275 18.9471C150.606 19.2908 150.072 19.7604 149.671 20.356C149.348 19.7757 148.886 19.3099 148.286 18.9586C147.686 18.6073 146.939 18.4316 146.047 18.4316C145.292 18.4316 144.6 18.5806 143.969 18.8784C143.338 19.1686 142.814 19.5695 142.399 20.0811V18.7295H139.629V31.1004Z" fill="white"/>
<path d="M20.5809 5C10.5627 5 2.44141 13.0589 2.44141 23C12.4596 23 20.5809 14.9411 20.5809 5Z" fill="#2F80ED"/>
<path d="M20.582 41C30.6002 41 38.7216 32.9411 38.7216 23C28.7034 23 20.582 31.0589 20.582 41Z" fill="#2F80ED"/>
<path d="M20.582 5C30.6002 5 38.7216 13.0589 38.7216 23C28.7034 23 20.582 14.9411 20.582 5Z" fill="#2F80ED"/>
<path d="M20.5809 41C10.5627 41 2.44141 32.9411 2.44141 23C12.4596 23 20.5809 31.0589 20.5809 41Z" fill="#2F80ED"/>
</svg>
