<svg width="197" height="110" viewBox="0 0 197 110" fill="none" xmlns="http://www.w3.org/2000/svg">
<g opacity="0.4">
<path d="M46.1166 53.2083C45.6997 53.6277 45.3805 54.1339 45.1816 54.6908C44.9827 55.2477 44.9091 55.8416 44.966 56.4302L44.9462 56.4104C45.0047 57.1032 44.9113 57.8005 44.6725 58.4535C44.4337 59.1065 44.0552 59.6995 43.5636 60.1912C43.0719 60.6828 42.4789 61.0612 41.8259 61.3C41.1729 61.5389 40.4756 61.6323 39.7828 61.5738L39.8026 61.5936C38.9738 61.5164 38.1414 61.6968 37.4189 62.1101C36.6964 62.5233 36.1189 63.1494 35.7653 63.9028C35.4116 64.6563 35.2989 65.5005 35.4426 66.3204C35.5862 67.1402 35.9793 67.8958 36.5681 68.4841C37.1569 69.0724 37.9129 69.4647 38.7329 69.6077C39.5529 69.7506 40.397 69.6372 41.1501 69.2828C41.9033 68.9284 42.5288 68.3504 42.9414 67.6275C43.354 66.9046 43.5336 66.0721 43.4557 65.2434L43.4766 65.2632C43.4181 64.5704 43.5115 63.8731 43.7503 63.2201C43.9891 62.5671 44.3676 61.9741 44.8592 61.4824C45.3509 60.9908 45.9439 60.6123 46.5969 60.3735C47.2499 60.1347 47.9472 60.0413 48.64 60.0998L48.6191 60.08C49.2961 60.1409 49.9775 60.0299 50.6002 59.7573C51.2228 59.4847 51.7666 59.0593 52.1811 58.5206C52.5957 57.9819 52.8675 57.3473 52.9714 56.6756C53.0753 56.0038 53.008 55.3167 52.7757 54.6779C52.5434 54.0391 52.1536 53.4693 51.6424 53.0213C51.1312 52.5733 50.5152 52.2616 49.8515 52.115C49.1877 51.9684 48.4977 51.9918 47.8454 52.1829C47.1931 52.374 46.5996 52.7267 46.1199 53.2083H46.1166Z" fill="#0D0E10"/>
<path d="M38.0023 58.9996L37.9814 58.9798C38.5703 59.0391 39.165 58.9668 39.7225 58.7682C40.28 58.5695 40.7864 58.2494 41.205 57.8311C41.6237 57.4128 41.9441 56.9066 42.1432 56.3493C42.3423 55.7919 42.415 55.1973 42.3561 54.6084L42.377 54.6282C42.3185 53.9353 42.412 53.2381 42.6508 52.5851C42.8896 51.9321 43.268 51.339 43.7596 50.8474C44.2513 50.3557 44.8443 49.9773 45.4973 49.7385C46.1503 49.4997 46.8476 49.4063 47.5404 49.4648L47.5195 49.445C48.3484 49.5228 49.181 49.3431 49.9039 48.9303C50.6269 48.5175 51.2049 47.8917 51.5591 47.1384C51.9133 46.385 52.0265 45.5408 51.8832 44.7207C51.74 43.9006 51.3473 43.1447 50.7586 42.5561C50.17 41.9674 49.4141 41.5747 48.594 41.4314C47.7739 41.2882 46.9297 41.4014 46.1763 41.7556C45.423 42.1098 44.7972 42.6878 44.3844 43.4108C43.9716 44.1337 43.7919 44.9663 43.8697 45.7952L43.8499 45.7743C43.9086 46.4671 43.8153 47.1645 43.5766 47.8176C43.3378 48.4707 42.9594 49.0638 42.4677 49.5555C41.976 50.0472 41.3829 50.4256 40.7298 50.6643C40.0767 50.9031 39.3794 50.9963 38.6865 50.9377L38.7063 50.9586C38.1175 50.8992 37.5228 50.9715 36.9653 51.1702C36.4078 51.3688 35.9014 51.6889 35.4827 52.1072C35.0641 52.5256 34.7436 53.0317 34.5445 53.5891C34.3455 54.1464 34.2727 54.7411 34.3316 55.33L34.3118 55.3102C34.3701 56.003 34.2766 56.7001 34.0377 57.353C33.7988 58.006 33.4204 58.5989 32.9288 59.0905C32.4372 59.5821 31.8442 59.9606 31.1913 60.1994C30.5384 60.4383 29.8412 60.5319 29.1484 60.4736L29.1682 60.4934C28.3394 60.4155 27.5067 60.5953 26.7838 61.0081C26.0609 61.4208 25.4829 62.0466 25.1287 62.8C24.7744 63.5533 24.6612 64.3976 24.8045 65.2176C24.9477 66.0377 25.3405 66.7936 25.9291 67.3823C26.5178 67.9709 27.2737 68.3636 28.0937 68.5069C28.9138 68.6501 29.7581 68.5369 30.5114 68.1827C31.2648 67.8285 31.8905 67.2505 32.3033 66.5276C32.7161 65.8047 32.8959 64.972 32.818 64.1432L32.8389 64.163C32.7804 63.4701 32.8739 62.7729 33.1127 62.1199C33.3515 61.4669 33.7299 60.8738 34.2215 60.3822C34.7132 59.8905 35.3062 59.5121 35.9592 59.2733C36.6122 59.0345 37.3095 58.9411 38.0023 58.9996Z" fill="#0D0E10"/>
<path d="M30.6293 56.792C31.0462 56.3727 31.3654 55.8665 31.5641 55.3095C31.7628 54.7526 31.8361 54.1587 31.7788 53.5701L31.7997 53.5899C31.7412 52.8969 31.8346 52.1994 32.0736 51.5463C32.3125 50.8931 32.6911 50.2999 33.183 49.8082C33.6749 49.3166 34.2682 48.9382 34.9215 48.6995C35.5748 48.4609 36.2723 48.3677 36.9653 48.4265L36.9444 48.4067C37.773 48.4843 38.6053 48.3045 39.3279 47.8918C40.0505 47.479 40.6282 46.8534 40.9822 46.1003C41.3362 45.3472 41.4493 44.5032 41.306 43.6834C41.1628 42.8637 40.7702 42.1081 40.1817 41.5196C39.5933 40.9312 38.8377 40.5386 38.0179 40.3953C37.1982 40.2521 36.3542 40.3652 35.6011 40.7192C34.8479 41.0732 34.2223 41.6509 33.8096 42.3735C33.3968 43.0961 33.217 43.9284 33.2946 44.7569L33.2748 44.7371C33.3333 45.43 33.2399 46.1272 33.0011 46.7802C32.7623 47.4332 32.3838 48.0262 31.8922 48.5179C31.4005 49.0096 30.8075 49.388 30.1545 49.6268C29.5015 49.8656 28.8042 49.959 28.1114 49.9005L28.1312 49.9203C27.4542 49.8596 26.7729 49.9708 26.1503 50.2435C25.5277 50.5162 24.9841 50.9416 24.5697 51.4804C24.1553 52.0192 23.8836 52.6538 23.7798 53.3255C23.676 53.9972 23.7434 54.6843 23.9758 55.323C24.2082 55.9617 24.5981 56.5315 25.1093 56.9794C25.6205 57.4273 26.2365 57.739 26.9002 57.8855C27.5639 58.032 28.2539 58.0086 28.9061 57.8174C29.5584 57.6263 30.1518 57.2736 30.6315 56.792H30.6293Z" fill="#0D0E10"/>
<path d="M64.7041 45.8203H67.9711V61.7186H64.7041V45.8203Z" fill="#0D0E10"/>
<path d="M69.8214 56.2748C69.8169 55.1323 70.1515 54.0141 70.7829 53.0619C71.4143 52.1097 72.3141 51.3664 73.3684 50.926C74.4226 50.4856 75.5838 50.368 76.7049 50.5881C77.826 50.8082 78.8566 51.356 79.6661 52.1623C80.4756 52.9686 81.0276 53.9969 81.2522 55.1172C81.4768 56.2374 81.3638 57.3991 80.9277 58.455C80.4915 59.511 79.7518 60.4138 78.8021 61.049C77.8525 61.6843 76.7357 62.0234 75.5932 62.0234C74.8347 62.032 74.0822 61.8894 73.3796 61.6039C72.6769 61.3183 72.0383 60.8956 71.5009 60.3603C70.9635 59.8251 70.5382 59.1881 70.2498 58.4866C69.9615 57.7852 69.8158 57.0332 69.8214 56.2748ZM78.0978 56.2748C78.0842 55.7823 77.9257 55.3048 77.6422 54.9019C77.3587 54.499 76.9626 54.1887 76.5037 54.0096C76.0447 53.8306 75.5431 53.7908 75.0617 53.8953C74.5802 53.9997 74.1403 54.2438 73.7968 54.5969C73.4533 54.9501 73.2215 55.3967 73.1304 55.8808C73.0393 56.365 73.093 56.8653 73.2847 57.3191C73.4764 57.7729 73.7976 58.1602 74.2082 58.4324C74.6188 58.7047 75.1005 58.8499 75.5932 58.8499C75.9305 58.8589 76.2661 58.7979 76.5788 58.6707C76.8914 58.5436 77.1743 58.353 77.4097 58.1111C77.645 57.8691 77.8276 57.5811 77.9461 57.265C78.0645 56.949 78.1162 56.6118 78.0978 56.2748Z" fill="#0D0E10"/>
<path d="M94.3859 50.8299V61.1699C94.3859 64.8285 91.5325 66.3751 88.6362 66.3751C87.6164 66.4514 86.5953 66.2454 85.6849 65.7797C84.7745 65.3141 84.0099 64.6066 83.475 63.7351L86.2624 62.1236C86.4872 62.5779 86.8454 62.9527 87.2891 63.1979C87.7328 63.443 88.2408 63.5468 88.7451 63.4953C89.0674 63.54 89.3956 63.5116 89.7054 63.4123C90.0153 63.3129 90.2988 63.1452 90.5351 62.9215C90.7714 62.6978 90.9543 62.4238 91.0704 62.1199C91.1865 61.8159 91.2328 61.4898 91.2058 61.1655V60.17C90.8232 60.6381 90.3363 61.01 89.784 61.2558C89.2317 61.5017 88.6295 61.6147 88.0257 61.5857C86.5889 61.5404 85.2261 60.9378 84.2257 59.9054C83.2254 58.873 82.666 57.4919 82.666 56.0543C82.666 54.6168 83.2254 53.2357 84.2257 52.2033C85.2261 51.1709 86.5889 50.5683 88.0257 50.523C88.6295 50.494 89.2317 50.607 89.784 50.8529C90.3363 51.0987 90.8232 51.4706 91.2058 51.9387V50.8277L94.3859 50.8299ZM91.2069 56.056C91.2288 55.5295 91.0927 55.0085 90.8161 54.56C90.5394 54.1115 90.1348 53.756 89.6545 53.5394C89.1741 53.3228 88.6399 53.2549 88.1206 53.3444C87.6013 53.4339 87.1206 53.6768 86.7406 54.0419C86.3605 54.4069 86.0983 54.8773 85.9878 55.3925C85.8774 55.9078 85.9236 56.4443 86.1206 56.933C86.3177 57.4218 86.6564 57.8404 87.0934 58.135C87.5303 58.4296 88.0454 58.5866 88.5724 58.586C88.9156 58.61 89.2601 58.5618 89.5836 58.4445C89.9071 58.3272 90.2025 58.1435 90.4506 57.9052C90.6988 57.6668 90.8943 57.3792 91.0246 57.0607C91.1548 56.7422 91.2169 56.3999 91.2069 56.056Z" fill="#0D0E10"/>
<path d="M96.2355 56.2748C96.2309 55.1323 96.5655 54.0141 97.197 53.0619C97.8284 52.1097 98.7282 51.3664 99.7824 50.926C100.837 50.4856 101.998 50.368 103.119 50.5881C104.24 50.8082 105.271 51.356 106.08 52.1623C106.89 52.9686 107.442 53.9969 107.666 55.1172C107.891 56.2374 107.778 57.3991 107.342 58.455C106.906 59.511 106.166 60.4138 105.216 61.049C104.267 61.6843 103.15 62.0234 102.007 62.0234C101.249 62.032 100.496 61.8894 99.7936 61.6039C99.091 61.3183 98.4523 60.8956 97.9149 60.3603C97.3776 59.8251 96.9523 59.1881 96.6639 58.4866C96.3755 57.7852 96.2299 57.0332 96.2355 56.2748ZM104.512 56.2748C104.498 55.7823 104.34 55.3048 104.056 54.9019C103.773 54.499 103.377 54.1887 102.918 54.0096C102.459 53.8306 101.957 53.7908 101.476 53.8953C100.994 53.9997 100.554 54.2438 100.211 54.5969C99.8673 54.9501 99.6355 55.3967 99.5445 55.8808C99.4534 56.365 99.507 56.8653 99.6987 57.3191C99.8904 57.7729 100.212 58.1602 100.622 58.4324C101.033 58.7047 101.515 58.8499 102.007 58.8499C102.345 58.8589 102.68 58.7979 102.993 58.6707C103.305 58.5436 103.588 58.353 103.824 58.1111C104.059 57.8691 104.242 57.5811 104.36 57.265C104.479 56.949 104.53 56.6118 104.512 56.2748Z" fill="#0D0E10"/>
<path d="M109.303 47.9114C109.303 47.5237 109.418 47.1447 109.633 46.8223C109.848 46.5 110.155 46.2487 110.513 46.1004C110.871 45.952 111.265 45.9132 111.645 45.9888C112.026 46.0645 112.375 46.2512 112.649 46.5253C112.923 46.7994 113.11 47.1487 113.185 47.529C113.261 47.9092 113.222 48.3033 113.074 48.6615C112.926 49.0197 112.674 49.3258 112.352 49.5412C112.03 49.7566 111.651 49.8716 111.263 49.8716C110.745 49.8664 110.249 49.6582 109.883 49.2917C109.516 48.9252 109.308 48.4297 109.303 47.9114ZM109.633 50.8297H112.901V61.7197H109.628L109.633 50.8297Z" fill="#0D0E10"/>
<path d="M127.007 56.2748C127.045 56.9945 126.94 57.7146 126.698 58.3936C126.457 59.0727 126.084 59.6973 125.6 60.2315C125.116 60.7657 124.532 61.1991 123.88 61.5066C123.228 61.8141 122.522 61.9898 121.802 62.0234C121.196 62.0564 120.591 61.9543 120.03 61.7245C119.469 61.4947 118.966 61.1429 118.558 60.6946V66.0747H115.291V50.8298H118.558V51.8528C118.966 51.4049 119.469 51.0534 120.03 50.8237C120.592 50.5941 121.197 50.4921 121.802 50.5251C122.522 50.5586 123.228 50.7342 123.88 51.0418C124.532 51.3493 125.117 51.7827 125.601 52.3171C126.084 52.8515 126.458 53.4763 126.699 54.1555C126.94 54.8347 127.045 55.555 127.007 56.2748ZM123.74 56.2748C123.727 55.7652 123.565 55.2706 123.272 54.853C122.98 54.4354 122.57 54.1134 122.096 53.9272C121.621 53.7409 121.102 53.6989 120.604 53.8062C120.105 53.9135 119.65 54.1654 119.294 54.5304C118.938 54.8954 118.698 55.3572 118.603 55.8582C118.508 56.3591 118.563 56.8769 118.761 57.3466C118.959 57.8164 119.292 58.2173 119.716 58.4992C120.141 58.7811 120.64 58.9314 121.15 58.9313C121.5 58.9469 121.849 58.8883 122.175 58.7594C122.501 58.6305 122.795 58.4342 123.04 58.1834C123.285 57.9326 123.473 57.6329 123.594 57.3039C123.715 56.975 123.764 56.6243 123.74 56.2748Z" fill="#0D0E10"/>
<path d="M137.088 58.4514C137.088 60.9561 134.911 62.0231 132.56 62.0231C131.609 62.1092 130.655 61.9083 129.82 61.4462C128.986 60.9842 128.309 60.2824 127.877 59.4315L130.707 57.82C130.822 58.2133 131.068 58.5555 131.404 58.7893C131.74 59.0231 132.147 59.1345 132.555 59.1048C133.338 59.1048 133.731 58.865 133.731 58.4305C133.731 57.2315 128.373 57.864 128.373 54.0965C128.373 51.7216 130.377 50.5248 132.642 50.5248C133.494 50.4979 134.337 50.6998 135.083 51.1096C135.83 51.5194 136.453 52.122 136.888 52.8546L134.101 54.3572C133.979 54.072 133.775 53.829 133.516 53.6587C133.256 53.4883 132.952 53.398 132.642 53.3991C132.076 53.3991 131.727 53.6191 131.727 54.0085C131.731 55.2504 137.088 54.4221 137.088 58.4514Z" fill="#0D0E10"/>
<path d="M149.022 50.8301V61.7201H145.755V60.696C145.378 61.1479 144.9 61.5039 144.359 61.7349C143.817 61.9659 143.229 62.0652 142.642 62.0248C140.442 62.0248 138.572 60.4573 138.572 57.5148V50.8301H141.839V57.0363C141.812 57.2956 141.841 57.5578 141.926 57.8046C142.01 58.0514 142.147 58.2769 142.327 58.4654C142.508 58.6538 142.727 58.8007 142.97 58.8959C143.213 58.991 143.473 59.0321 143.733 59.0163C144.931 59.0163 145.759 58.32 145.759 56.7734V50.8334L149.022 50.8301Z" fill="#0D0E10"/>
<path d="M167.756 55.0329V61.7187H164.489V55.3156C164.489 54.2266 163.966 53.5303 162.921 53.5303C161.832 53.5303 161.222 54.2926 161.222 55.5774V61.7187H157.956V55.3156C157.956 54.2266 157.433 53.5303 156.387 53.5303C155.298 53.5303 154.689 54.2926 154.689 55.5774V61.7187H151.422V50.8287H154.689V51.8297C155.028 51.3856 155.472 51.0335 155.982 50.8054C156.492 50.5773 157.05 50.4806 157.607 50.524C158.166 50.4967 158.723 50.6146 159.223 50.8664C159.723 51.1182 160.149 51.4951 160.459 51.9606C160.821 51.4737 161.301 51.0865 161.853 50.8352C162.406 50.584 163.013 50.4769 163.618 50.524C166.118 50.5251 167.756 52.3104 167.756 55.0329Z" fill="#0D0E10"/>
<path d="M170.519 50.7629C171.858 50.7629 172.944 49.6774 172.944 48.3385C172.944 46.9995 171.858 45.9141 170.519 45.9141C169.18 45.9141 168.095 46.9995 168.095 48.3385C168.095 49.6774 169.18 50.7629 170.519 50.7629Z" fill="#0D0E10"/>
</g>
</svg>
