<svg width="32" height="32" viewBox="0 0 32 32" fill="none" xmlns="http://www.w3.org/2000/svg">
<path d="M5.66667 0H26.3333C29.4667 0 32 2.59829 32 5.81197V26.188C32 29.4017 29.4667 32 26.3333 32H5.66667C2.53333 32 0 29.4017 0 26.188V5.81197C0 2.59829 2.53333 0 5.66667 0Z" fill="#00005B"/>
<path d="M12.8555 19.1452H7.89554L6.88221 22.3726C6.85554 22.4957 6.74888 22.5777 6.62888 22.5641H4.12221C3.97554 22.5641 3.93554 22.482 3.97554 22.3179L8.26888 9.69567C8.30888 9.55892 8.34888 9.43584 8.40221 9.27174C8.45554 8.98456 8.48221 8.6837 8.48221 8.38285C8.46888 8.31447 8.52221 8.2461 8.58888 8.23242H8.62888H12.0422C12.1355 8.23242 12.2022 8.27345 12.2155 8.34182L17.0822 22.2905C17.1222 22.441 17.0822 22.5094 16.9489 22.5094H14.1622C14.0689 22.523 13.9755 22.4546 13.9489 22.3589L12.8555 19.0769V19.1452ZM8.66888 16.4239H12.0555C11.9755 16.1367 11.8689 15.7948 11.7489 15.4393C11.6289 15.07 11.5089 14.6735 11.3889 14.2632C11.2555 13.8393 11.1355 13.429 11.0022 13.0051C10.8689 12.5811 10.7489 12.1846 10.6422 11.788C10.5355 11.4051 10.4422 11.0495 10.3489 10.7213H10.3222C10.2022 11.3093 10.0555 11.8974 9.86888 12.4854C9.66888 13.1418 9.46888 13.8256 9.25554 14.5093C9.08221 15.2068 8.86888 15.8495 8.66888 16.4239Z" fill="#9999FF"/>
<path d="M24.9353 17.9146H20.7086C20.762 18.3385 20.8953 18.7625 21.122 19.1317C21.362 19.5009 21.6953 19.7881 22.0953 19.9522C22.6286 20.1847 23.2153 20.3078 23.802 20.2941C24.2686 20.2804 24.7353 20.2394 25.1886 20.1437C25.602 20.089 26.002 19.9796 26.3753 19.8291C26.442 19.7744 26.482 19.8018 26.482 19.9385V22.0308C26.482 22.0855 26.4686 22.1402 26.4553 22.1949C26.4286 22.236 26.402 22.2633 26.362 22.2907C25.9353 22.4821 25.4953 22.6189 25.0286 22.7009C24.402 22.824 23.7753 22.8787 23.1353 22.865C22.122 22.865 21.2686 22.7009 20.5753 22.3864C19.922 22.0992 19.3486 21.6479 18.8953 21.0873C18.4686 20.5539 18.162 19.9522 17.9753 19.2958C17.7886 18.6531 17.6953 17.983 17.6953 17.2992C17.6953 16.5608 17.802 15.836 18.0286 15.1249C18.242 14.4411 18.5753 13.812 19.0286 13.2514C19.4686 12.7043 20.0153 12.2667 20.642 11.9522C21.2686 11.6377 22.0153 11.5283 22.8686 11.5283C23.5753 11.5146 24.282 11.6514 24.9353 11.9522C25.482 12.1984 25.962 12.5676 26.3353 13.0462C26.682 13.5112 26.962 14.0308 27.1353 14.6052C27.3086 15.1522 27.3886 15.7129 27.3886 16.2736C27.3886 16.6018 27.3753 16.889 27.362 17.1488C27.3353 17.4086 27.322 17.6001 27.3086 17.7231C27.2953 17.8189 27.2153 17.9009 27.122 17.9009C27.042 17.9009 26.8953 17.9146 26.682 17.9283C26.4686 17.9556 26.2153 17.9693 25.9086 17.9693C25.602 17.9693 25.282 17.9146 24.9353 17.9146ZM20.7086 15.918H23.522C23.8686 15.918 24.122 15.918 24.282 15.9043C24.3886 15.8907 24.4953 15.8633 24.5886 15.7949V15.6582C24.5886 15.4804 24.562 15.3163 24.5086 15.1522C24.2686 14.3864 23.562 13.8667 22.7753 13.8941C22.042 13.8531 21.3486 14.2496 21.002 14.9334C20.842 15.2479 20.7486 15.5761 20.7086 15.918Z" fill="#9999FF"/>
</svg>
