<svg xmlns="http://www.w3.org/2000/svg" width="106" height="84" viewBox="0 0 106 84" fill="none"><path opacity="0.6" d="M51.8032 22.1507L51.9806 21.0667H50.8821H41.973H41.18L41.0519 21.8493L38.6808 36.3394H27.5723L29.8941 22.1507L30.0715 21.0667H28.973H19.973H19.1788L19.0517 21.8506L16.7028 36.3394H6.51847H5.58513V37.2727V45.1818V46.1152H6.51847H15.1179L13.2098 57.8848H2.60938H1.67604V58.8182V66.6364V67.5697H2.60938H11.6397L9.32443 81.8506L9.14891 82.9333H10.2457H19.1548H19.9478L20.0759 82.1507L22.4619 67.5697H33.5704L31.2337 81.8493L31.0564 82.9333H32.1548H41.0639H41.8569L41.985 82.1507L44.371 67.5697H55.2457H56.1791V66.6364V58.8182V57.8848H55.2457H45.9558L47.8817 46.1152H59.1548H60.0882V45.1818V37.2727V36.3394H59.1548H49.4814L51.8032 22.1507ZM24.0467 57.8848L25.9726 46.1152H37.0811L35.1552 57.8848H24.0467ZM86.0932 82V82.9333H87.0265H103.39H104.323V82V2V1.06667H103.39H89.8144H89.3221L89.0441 1.47296C88.0668 2.90128 86.6122 4.36657 84.6458 5.86125C82.7444 7.28714 80.599 8.67836 78.2072 10.0339C75.8968 11.3084 73.5889 12.4225 71.2835 13.3768C69.0837 14.2403 67.1148 14.7366 65.3699 14.8884L64.3754 14.9748L64.5285 15.9613L66.7103 30.0219L66.8604 30.9894L67.8196 30.7932C71.4724 30.046 75.0348 28.719 78.5051 26.8186C81.3005 25.2878 83.8835 23.54 86.2528 21.5749C86.1998 22.9336 86.1469 24.275 86.0939 25.5991L86.0932 25.6177V25.6364V25.6477V25.6591V25.6704V25.6818V25.6932V25.7045V25.7159V25.7272V25.7386V25.75V25.7613V25.7727V25.784V25.7954V25.8067V25.8181V25.8294V25.8408V25.8521V25.8634V25.8748V25.8861V25.8975V25.9088V25.9202V25.9315V25.9428V25.9542V25.9655V25.9769V25.9882V25.9995V26.0109V26.0222V26.0335V26.0449V26.0562V26.0675V26.0788V26.0902V26.1015V26.1128V26.1241V26.1355V26.1468V26.1581V26.1694V26.1807V26.1921V26.2034V26.2147V26.226V26.2373V26.2486V26.26V26.2713V26.2826V26.2939V26.3052V26.3165V26.3278V26.3391V26.3504V26.3617V26.373V26.3843V26.3956V26.4069V26.4183V26.4296V26.4408V26.4521V26.4634V26.4747V26.486V26.4973V26.5086V26.5199V26.5312V26.5425V26.5538V26.5651V26.5764V26.5876V26.5989V26.6102V26.6215V26.6328V26.6441V26.6553V26.6666V26.6779V26.6892V26.7005V26.7117V26.723V26.7343V26.7456V26.7568V26.7681V26.7794V26.7906V26.8019V26.8132V26.8244V26.8357V26.847V26.8582V26.8695V26.8808V26.892V26.9033V26.9145V26.9258V26.9371V26.9483V26.9596V26.9708V26.9821V26.9933V27.0046V27.0158V27.0271V27.0383V27.0496V27.0608V27.0721V27.0833V27.0946V27.1058V27.1171V27.1283V27.1395V27.1508V27.162V27.1733V27.1845V27.1957V27.207V27.2182V27.2294V27.2407V27.2519V27.2631V27.2744V27.2856V27.2968V27.3081V27.3193V27.3305V27.3417V27.353V27.3642V27.3754V27.3866V27.3978V27.4091V27.4203V27.4315V27.4427V27.4539V27.4651V27.4763V27.4876V27.4988V27.51V27.5212V27.5324V27.5436V27.5548V27.566V27.5772V27.5884V27.5996V27.6108V27.622V27.6332V27.6444V27.6556V27.6668V27.678V27.6892V27.7004V27.7116V27.7228V27.734V27.7452V27.7564V27.7676V27.7788V27.7899V27.8011V27.8123V27.8235V27.8347V27.8459V27.8571V27.8682V27.8794V27.8906V27.9018V27.9129V27.9241V27.9353V27.9465V27.9576V27.9688V27.98V27.9912V28.0023V28.0135V28.0247V28.0358V28.047V28.0582V28.0693V28.0805V28.0917V28.1028V28.114V28.1251V28.1363V28.1475V28.1586V28.1698V28.1809V28.1921V28.2032V28.2144V28.2255V28.2367V28.2478V28.259V28.2701V28.2813V28.2924V28.3036V28.3147V28.3259V28.337V28.3481V28.3593V28.3704V28.3816V28.3927V28.4038V28.415V28.4261V28.4372V28.4484V28.4595V28.4706V28.4818V28.4929V28.504V28.5152V28.5263V28.5374V28.5485V28.5597V28.5708V28.5819V28.593V28.6041V28.6153V28.6264V28.6375V28.6486V28.6597V28.6708V28.6819V28.6931V28.7042V28.7153V28.7264V28.7375V28.7486V28.7597V28.7708V28.7819V28.793V28.8041V28.8152V28.8263V28.8374V28.8485V28.8596V28.8707V28.8818V28.8929V28.904V28.9151V28.9262V28.9373V28.9484V28.9595V28.9706V28.9817V28.9928V29.0038V29.0149V29.026V29.0371V29.0482V29.0593V29.0703V29.0814V29.0925V29.1036V29.1147V29.1257V29.1368V29.1479V29.159V29.17V29.1811V29.1922V29.2032V29.2143V29.2254V29.2364V29.2475V29.2586V29.2696V29.2807V29.2918V29.3028V29.3139V29.3249V29.336V29.3471V29.3581V29.3692V29.3802V29.3913V29.4023V29.4134V29.4244V29.4355V29.4465V29.4576V29.4686V29.4797V29.4907V29.5018V29.5128V29.5239V29.5349V29.546V29.557V29.568V29.5791V29.5901V29.6011V29.6122V29.6232V29.6342V29.6453V29.6563V29.6673V29.6784V29.6894V29.7004V29.7115V29.7225V29.7335V29.7445V29.7556V29.7666V29.7776V29.7886V29.7996V29.8107V29.8217V29.8327V29.8437V29.8547V29.8657V29.8768V29.8878V29.8988V29.9098V29.9208V29.9318V29.9428V29.9538V29.9648V29.9758V29.9868V29.9979V30.0089V30.0199V30.0309V30.0419V30.0529V30.0639V30.0748V30.0858V30.0968V30.1078V30.1188V30.1298V30.1408V30.1518V30.1628V30.1738V30.1848V30.1958V30.2067V30.2177V30.2287V30.2397V30.2507V30.2617V30.2726V30.2836V30.2946V30.3056V30.3165V30.3275V30.3385V30.3495V30.3604V30.3714V30.3824V30.3934V30.4043V30.4153V30.4263V30.4372V30.4482V30.4592V30.4701V30.4811V30.492V30.503V30.514V30.5249V30.5359V30.5468V30.5578V30.5688V30.5797V30.5907V30.6016V30.6126V30.6235V30.6345V30.6454V30.6564V30.6673V30.6783V30.6892V30.7001V30.7111V30.722V30.733V30.7439V30.7549V30.7658V30.7767V30.7877V30.7986V30.8095V30.8205V30.8314V30.8423V30.8533V30.8642V30.8751V30.8861V30.897V30.9079V30.9188V30.9298V30.9407V30.9516V30.9625V30.9735V30.9844V30.9953V31.0062V31.0171V31.028V31.039V31.0499V31.0608V31.0717V31.0826V31.0935V31.1044V31.1153V31.1263V31.1372V31.1481V31.159V31.1699V31.1808V31.1917V31.2026V31.2135V31.2244V31.2353V31.2462V31.2571V31.268V31.2789V31.2898V31.3007V31.3116V31.3224V31.3333V82Z" stroke="#5F5FB8" stroke-width="1.86667"></path></svg>